solid OpenSCAD_Model
  facet normal 0 -0.707107 -0.707107
    outer loop
      vertex 0.8 0.8 0
      vertex 74 0 0.8
      vertex 0 0 0.8
    endloop
  endfacet
  facet normal 0.707107 0 -0.707107
    outer loop
      vertex 74 38 0.8
      vertex 74 0 0.8
      vertex 73.2 37.2 0
    endloop
  endfacet
  facet normal -0 -0.707107 -0.707107
    outer loop
      vertex 73.2 0.8 0
      vertex 74 0 0.8
      vertex 0.8 0.8 0
    endloop
  endfacet
  facet normal -0.707107 0 -0.707107
    outer loop
      vertex 0.8 0.8 0
      vertex 0 38 0.8
      vertex 0.8 37.2 0
    endloop
  endfacet
  facet normal 0 1 0
    outer loop
      vertex 0 38 0.8
      vertex 74 38 36
      vertex 74 38 0.8
    endloop
  endfacet
  facet normal 0 0.707107 -0.707107
    outer loop
      vertex 73.2 37.2 0
      vertex 0 38 0.8
      vertex 74 38 0.8
    endloop
  endfacet
  facet normal -1 -0 -0
    outer loop
      vertex 0 38 36
      vertex 0 38 0.8
      vertex 0 0 36
    endloop
  endfacet
  facet normal 1 0 0
    outer loop
      vertex 74 38 36
      vertex 74 0 0.8
      vertex 74 38 0.8
    endloop
  endfacet
  facet normal -0 1 0
    outer loop
      vertex 0 38 36
      vertex 74 38 36
      vertex 0 38 0.8
    endloop
  endfacet
  facet normal 0 0 1
    outer loop
      vertex 0 0 36
      vertex 74 38 36
      vertex 0 38 36
    endloop
  endfacet
  facet normal 0 -0 1
    outer loop
      vertex 74 0 36
      vertex 74 38 36
      vertex 0 0 36
    endloop
  endfacet
  facet normal 0 -1 0
    outer loop
      vertex 0 0 0.8
      vertex 74 0 0.8
      vertex 0 0 36
    endloop
  endfacet
  facet normal 0.707107 0 -0.707107
    outer loop
      vertex 73.2 37.2 0
      vertex 74 0 0.8
      vertex 73.2 0.8 0
    endloop
  endfacet
  facet normal 0 0.707107 -0.707107
    outer loop
      vertex 0.8 37.2 0
      vertex 0 38 0.8
      vertex 73.2 37.2 0
    endloop
  endfacet
  facet normal 0 0 -1
    outer loop
      vertex 0.8 0.8 0
      vertex 73.2 37.2 0
      vertex 73.2 0.8 0
    endloop
  endfacet
  facet normal 0 0 -1
    outer loop
      vertex 0.8 37.2 0
      vertex 73.2 37.2 0
      vertex 0.8 0.8 0
    endloop
  endfacet
  facet normal -0.707107 0 -0.707107
    outer loop
      vertex 0 0 0.8
      vertex 0 38 0.8
      vertex 0.8 0.8 0
    endloop
  endfacet
  facet normal -1 0 0
    outer loop
      vertex 0 0 36
      vertex 0 38 0.8
      vertex 0 0 0.8
    endloop
  endfacet
  facet normal 1 -0 0
    outer loop
      vertex 74 0 36
      vertex 74 0 0.8
      vertex 74 38 36
    endloop
  endfacet
  facet normal 0 -1 0
    outer loop
      vertex 0 0 36
      vertex 74 0 0.8
      vertex 74 0 36
    endloop
  endfacet
endsolid OpenSCAD_Model
