solid OpenSCAD_Model
  facet normal 0.707107 0.707107 0
    outer loop
      vertex 74 36 34
      vertex 72 38 0
      vertex 72 38 34
    endloop
  endfacet
  facet normal 0.707107 0.707107 0
    outer loop
      vertex 72 38 0
      vertex 74 36 34
      vertex 74 36 0
    endloop
  endfacet
  facet normal 0 -1 0
    outer loop
      vertex 2 0 0
      vertex 29 0 10
      vertex 2 0 24.1281
    endloop
  endfacet
  facet normal 0 -1 -0
    outer loop
      vertex 29 0 10
      vertex 2 0 0
      vertex 29 0 0
    endloop
  endfacet
  facet normal 0 -1 0
    outer loop
      vertex 29 0 10
      vertex 2 0 34
      vertex 2 0 31.8719
    endloop
  endfacet
  facet normal 0 -1 0
    outer loop
      vertex 29 0 10
      vertex 2 0 31.8719
      vertex 2 0 24.1281
    endloop
  endfacet
  facet normal 0 -1 0
    outer loop
      vertex 2 0 34
      vertex 29 0 10
      vertex 72 0 34
    endloop
  endfacet
  facet normal 0 -1 0
    outer loop
      vertex 45 0 10
      vertex 72 0 34
      vertex 29 0 10
    endloop
  endfacet
  facet normal 0 -1 0
    outer loop
      vertex 72 0 0
      vertex 45 0 10
      vertex 45 0 0
    endloop
  endfacet
  facet normal 0 -1 0
    outer loop
      vertex 45 0 10
      vertex 72 0 0
      vertex 72 0 34
    endloop
  endfacet
  facet normal 0 0 -1
    outer loop
      vertex 29 0 0
      vertex 3.94286 1.94286 0
      vertex 29 1.94286 0
    endloop
  endfacet
  facet normal 0 0 -1
    outer loop
      vertex 2 0 0
      vertex 3.94286 1.94286 0
      vertex 29 0 0
    endloop
  endfacet
  facet normal 0 0 -1
    outer loop
      vertex 2 0 0
      vertex 1.94286 3.94286 0
      vertex 3.94286 1.94286 0
    endloop
  endfacet
  facet normal -0 0 -1
    outer loop
      vertex 1.94286 3.94286 0
      vertex 0 2 0
      vertex 1.94286 34.0571 0
    endloop
  endfacet
  facet normal 0 0 -1
    outer loop
      vertex 0 2 0
      vertex 1.94286 3.94286 0
      vertex 2 0 0
    endloop
  endfacet
  facet normal 0 0 -1
    outer loop
      vertex 3.94286 36.0571 0
      vertex 29 38 0
      vertex 29 36.0571 0
    endloop
  endfacet
  facet normal 0 0 -1
    outer loop
      vertex 3.94286 36.0571 0
      vertex 2 38 0
      vertex 29 38 0
    endloop
  endfacet
  facet normal 0 0 -1
    outer loop
      vertex 1.94286 34.0571 0
      vertex 2 38 0
      vertex 3.94286 36.0571 0
    endloop
  endfacet
  facet normal 0 0 -1
    outer loop
      vertex 0 36 0
      vertex 1.94286 34.0571 0
      vertex 0 2 0
    endloop
  endfacet
  facet normal 0 0 -1
    outer loop
      vertex 1.94286 34.0571 0
      vertex 0 36 0
      vertex 2 38 0
    endloop
  endfacet
  facet normal 0 0 -1
    outer loop
      vertex 72.0571 34.0571 0
      vertex 74 25 0
      vertex 72.0571 25 0
    endloop
  endfacet
  facet normal 0 0 -1
    outer loop
      vertex 74 25 0
      vertex 72.0571 34.0571 0
      vertex 74 36 0
    endloop
  endfacet
  facet normal 0 0 -1
    outer loop
      vertex 72.0571 34.0571 0
      vertex 72 38 0
      vertex 74 36 0
    endloop
  endfacet
  facet normal 0 0 -1
    outer loop
      vertex 70.0571 36.0571 0
      vertex 72 38 0
      vertex 72.0571 34.0571 0
    endloop
  endfacet
  facet normal 0 0 -1
    outer loop
      vertex 45 38 0
      vertex 70.0571 36.0571 0
      vertex 45 36.0571 0
    endloop
  endfacet
  facet normal 0 0 -1
    outer loop
      vertex 70.0571 36.0571 0
      vertex 45 38 0
      vertex 72 38 0
    endloop
  endfacet
  facet normal 0 0 -1
    outer loop
      vertex 74 2 0
      vertex 72.0571 3.94286 0
      vertex 74 13 0
    endloop
  endfacet
  facet normal 0 0 -1
    outer loop
      vertex 72 0 0
      vertex 72.0571 3.94286 0
      vertex 74 2 0
    endloop
  endfacet
  facet normal 0 0 -1
    outer loop
      vertex 72 0 0
      vertex 70.0571 1.94286 0
      vertex 72.0571 3.94286 0
    endloop
  endfacet
  facet normal 0 0 -1
    outer loop
      vertex 45 0 0
      vertex 70.0571 1.94286 0
      vertex 72 0 0
    endloop
  endfacet
  facet normal -0 0 -1
    outer loop
      vertex 70.0571 1.94286 0
      vertex 45 0 0
      vertex 45 1.94286 0
    endloop
  endfacet
  facet normal -0 0 -1
    outer loop
      vertex 74 13 0
      vertex 72.0571 3.94286 0
      vertex 72.0571 13 0
    endloop
  endfacet
  facet normal -0.707107 -0.707107 0
    outer loop
      vertex 0 2 0
      vertex 1 1 24
      vertex 0 2 24
    endloop
  endfacet
  facet normal -0.707107 -0.707107 0
    outer loop
      vertex 2 0 0
      vertex 1 1 24
      vertex 0 2 0
    endloop
  endfacet
  facet normal -0.707111 -0.707103 -3.37399e-07
    outer loop
      vertex 1 1 24
      vertex 2 0 0
      vertex 1.26161 0.738387 24.0086
    endloop
  endfacet
  facet normal -0.707096 -0.707118 5.77767e-07
    outer loop
      vertex 1.26161 0.738387 24.0086
      vertex 2 0 0
      vertex 1.52211 0.477895 24.0342
    endloop
  endfacet
  facet normal -0.707116 -0.707097 -2.33228e-07
    outer loop
      vertex 1.52211 0.477895 24.0342
      vertex 2 0 0
      vertex 1.78036 0.219638 24.0769
    endloop
  endfacet
  facet normal -0.707104 -0.70711 0
    outer loop
      vertex 1.78036 0.219638 24.0769
      vertex 2 0 0
      vertex 2 0 24.1281
    endloop
  endfacet
  facet normal -0.707107 -0.707107 0
    outer loop
      vertex 1 1 32
      vertex 0 2 34
      vertex 0 2 32
    endloop
  endfacet
  facet normal -0.707111 -0.707103 3.98877e-06
    outer loop
      vertex 2 0 34
      vertex 1 1 32
      vertex 1.26161 0.738387 31.9914
    endloop
  endfacet
  facet normal -0.707096 -0.707117 -6.68535e-06
    outer loop
      vertex 2 0 34
      vertex 1.26161 0.738387 31.9914
      vertex 1.52211 0.477895 31.9658
    endloop
  endfacet
  facet normal -0.707116 -0.707097 2.66128e-06
    outer loop
      vertex 2 0 34
      vertex 1.52211 0.477895 31.9658
      vertex 1.78036 0.219638 31.9231
    endloop
  endfacet
  facet normal -0.707104 -0.70711 -0
    outer loop
      vertex 2 0 34
      vertex 1.78036 0.219638 31.9231
      vertex 2 0 31.8719
    endloop
  endfacet
  facet normal -0.707107 -0.707107 0
    outer loop
      vertex 1 1 32
      vertex 2 0 34
      vertex 0 2 34
    endloop
  endfacet
  facet normal -1 0 0
    outer loop
      vertex 0 1 24
      vertex 0 2 32
      vertex 0 2 24
    endloop
  endfacet
  facet normal -1 0 0
    outer loop
      vertex 0 1 24
      vertex 0 1 32
      vertex 0 2 32
    endloop
  endfacet
  facet normal -1 0 0
    outer loop
      vertex 0 0.738387 24.0086
      vertex 0 1 32
      vertex 0 1 24
    endloop
  endfacet
  facet normal -1 0 0
    outer loop
      vertex 0 0.738387 24.0086
      vertex 0 0.738387 31.9914
      vertex 0 1 32
    endloop
  endfacet
  facet normal -1 0 0
    outer loop
      vertex 0 0.477895 24.0342
      vertex 0 0.738387 31.9914
      vertex 0 0.738387 24.0086
    endloop
  endfacet
  facet normal -1 0 0
    outer loop
      vertex 0 0.477895 24.0342
      vertex 0 0.477895 31.9658
      vertex 0 0.738387 31.9914
    endloop
  endfacet
  facet normal -1 0 0
    outer loop
      vertex 0 0.219638 24.0769
      vertex 0 0.477895 31.9658
      vertex 0 0.477895 24.0342
    endloop
  endfacet
  facet normal -1 0 0
    outer loop
      vertex 0 0.219638 24.0769
      vertex 0 0.219638 31.9231
      vertex 0 0.477895 31.9658
    endloop
  endfacet
  facet normal -1 0 0
    outer loop
      vertex 0 -0.0352755 24.1363
      vertex 0 0.219638 31.9231
      vertex 0 0.219638 24.0769
    endloop
  endfacet
  facet normal -1 0 0
    outer loop
      vertex 0 -0.0352755 24.1363
      vertex 0 -0.0352755 31.8637
      vertex 0 0.219638 31.9231
    endloop
  endfacet
  facet normal -1 0 0
    outer loop
      vertex 0 -0.285757 24.2123
      vertex 0 -0.0352755 31.8637
      vertex 0 -0.0352755 24.1363
    endloop
  endfacet
  facet normal -1 0 0
    outer loop
      vertex 0 -0.285757 24.2123
      vertex 0 -0.285757 31.7877
      vertex 0 -0.0352755 31.8637
    endloop
  endfacet
  facet normal -1 0 0
    outer loop
      vertex 0 -0.530733 24.3045
      vertex 0 -0.285757 31.7877
      vertex 0 -0.285757 24.2123
    endloop
  endfacet
  facet normal -1 0 0
    outer loop
      vertex 0 -0.530733 24.3045
      vertex 0 -0.530733 31.6955
      vertex 0 -0.285757 31.7877
    endloop
  endfacet
  facet normal -1 0 0
    outer loop
      vertex 0 -0.769155 24.4125
      vertex 0 -0.530733 31.6955
      vertex 0 -0.530733 24.3045
    endloop
  endfacet
  facet normal -1 0 0
    outer loop
      vertex 0 -0.769155 24.4125
      vertex 0 -0.769155 31.5875
      vertex 0 -0.530733 31.6955
    endloop
  endfacet
  facet normal -1 0 0
    outer loop
      vertex 0 -1 24.5359
      vertex 0 -0.769155 31.5875
      vertex 0 -0.769155 24.4125
    endloop
  endfacet
  facet normal -1 0 0
    outer loop
      vertex 0 -1 24.5359
      vertex 0 -1 31.4641
      vertex 0 -0.769155 31.5875
    endloop
  endfacet
  facet normal -1 0 0
    outer loop
      vertex 0 -1.22228 24.6741
      vertex 0 -1 31.4641
      vertex 0 -1 24.5359
    endloop
  endfacet
  facet normal -1 0 0
    outer loop
      vertex 0 -1.22228 24.6741
      vertex 0 -1.22228 31.3259
      vertex 0 -1 31.4641
    endloop
  endfacet
  facet normal -1 0 0
    outer loop
      vertex 0 -1.43505 24.8266
      vertex 0 -1.22228 31.3259
      vertex 0 -1.22228 24.6741
    endloop
  endfacet
  facet normal -1 0 0
    outer loop
      vertex 0 -1.43505 24.8266
      vertex 0 -1.43505 31.1734
      vertex 0 -1.22228 31.3259
    endloop
  endfacet
  facet normal -1 0 0
    outer loop
      vertex 0 -1.63738 24.9926
      vertex 0 -1.43505 31.1734
      vertex 0 -1.43505 24.8266
    endloop
  endfacet
  facet normal -1 0 0
    outer loop
      vertex 0 -1.63738 24.9926
      vertex 0 -1.63738 31.0074
      vertex 0 -1.43505 31.1734
    endloop
  endfacet
  facet normal -1 0 0
    outer loop
      vertex 0 -1.82843 25.1716
      vertex 0 -1.63738 31.0074
      vertex 0 -1.63738 24.9926
    endloop
  endfacet
  facet normal -1 0 0
    outer loop
      vertex 0 -1.82843 25.1716
      vertex 0 -1.82843 30.8284
      vertex 0 -1.63738 31.0074
    endloop
  endfacet
  facet normal -1 0 0
    outer loop
      vertex 0 -2.00736 25.3626
      vertex 0 -1.82843 30.8284
      vertex 0 -1.82843 25.1716
    endloop
  endfacet
  facet normal -1 0 0
    outer loop
      vertex 0 -2.00736 25.3626
      vertex 0 -2.00736 30.6374
      vertex 0 -1.82843 30.8284
    endloop
  endfacet
  facet normal -1 0 0
    outer loop
      vertex 0 -2.17341 25.565
      vertex 0 -2.00736 30.6374
      vertex 0 -2.00736 25.3626
    endloop
  endfacet
  facet normal -1 0 0
    outer loop
      vertex 0 -2.17341 25.565
      vertex 0 -2.17341 30.435
      vertex 0 -2.00736 30.6374
    endloop
  endfacet
  facet normal -1 0 0
    outer loop
      vertex 0 -2.32588 25.7777
      vertex 0 -2.17341 30.435
      vertex 0 -2.17341 25.565
    endloop
  endfacet
  facet normal -1 0 0
    outer loop
      vertex 0 -2.32588 25.7777
      vertex 0 -2.32588 30.2223
      vertex 0 -2.17341 30.435
    endloop
  endfacet
  facet normal -1 0 0
    outer loop
      vertex 0 -2.4641 26
      vertex 0 -2.32588 30.2223
      vertex 0 -2.32588 25.7777
    endloop
  endfacet
  facet normal -1 0 0
    outer loop
      vertex 0 -2.4641 26
      vertex 0 -2.4641 30
      vertex 0 -2.32588 30.2223
    endloop
  endfacet
  facet normal -1 0 0
    outer loop
      vertex 0 -2.58749 26.2308
      vertex 0 -2.4641 30
      vertex 0 -2.4641 26
    endloop
  endfacet
  facet normal -1 0 0
    outer loop
      vertex 0 -2.58749 26.2308
      vertex 0 -2.58749 29.7692
      vertex 0 -2.4641 30
    endloop
  endfacet
  facet normal -1 0 0
    outer loop
      vertex 0 -2.69552 26.4693
      vertex 0 -2.58749 29.7692
      vertex 0 -2.58749 26.2308
    endloop
  endfacet
  facet normal -1 0 0
    outer loop
      vertex 0 -2.69552 26.4693
      vertex 0 -2.69552 29.5307
      vertex 0 -2.58749 29.7692
    endloop
  endfacet
  facet normal -1 0 0
    outer loop
      vertex 0 -2.78772 26.7142
      vertex 0 -2.69552 29.5307
      vertex 0 -2.69552 26.4693
    endloop
  endfacet
  facet normal -1 0 0
    outer loop
      vertex 0 -2.78772 26.7142
      vertex 0 -2.78772 29.2858
      vertex 0 -2.69552 29.5307
    endloop
  endfacet
  facet normal -1 0 0
    outer loop
      vertex 0 -2.8637 26.9647
      vertex 0 -2.78772 29.2858
      vertex 0 -2.78772 26.7142
    endloop
  endfacet
  facet normal -1 0 0
    outer loop
      vertex 0 -2.8637 26.9647
      vertex 0 -2.8637 29.0353
      vertex 0 -2.78772 29.2858
    endloop
  endfacet
  facet normal -1 0 0
    outer loop
      vertex 0 -2.92314 27.2196
      vertex 0 -2.8637 29.0353
      vertex 0 -2.8637 26.9647
    endloop
  endfacet
  facet normal -1 0 0
    outer loop
      vertex 0 -2.92314 27.2196
      vertex 0 -2.92314 28.7804
      vertex 0 -2.8637 29.0353
    endloop
  endfacet
  facet normal -1 0 0
    outer loop
      vertex 0 -2.96578 27.4779
      vertex 0 -2.92314 28.7804
      vertex 0 -2.92314 27.2196
    endloop
  endfacet
  facet normal -1 0 0
    outer loop
      vertex 0 -2.96578 27.4779
      vertex 0 -2.96578 28.5221
      vertex 0 -2.92314 28.7804
    endloop
  endfacet
  facet normal -1 0 0
    outer loop
      vertex 0 -2.99144 27.7384
      vertex 0 -2.96578 28.5221
      vertex 0 -2.96578 27.4779
    endloop
  endfacet
  facet normal -1 0 0
    outer loop
      vertex 0 -2.99144 27.7384
      vertex 0 -2.99144 28.2616
      vertex 0 -2.96578 28.5221
    endloop
  endfacet
  facet normal -1 0 -0
    outer loop
      vertex 0 -2.99144 28.2616
      vertex 0 -2.99144 27.7384
      vertex 0 -3 28
    endloop
  endfacet
  facet normal -1 0 0
    outer loop
      vertex 0 2 24
      vertex 0 36 24
      vertex 0 36 0
    endloop
  endfacet
  facet normal -1 0 0
    outer loop
      vertex 0 36 24
      vertex 0 2 24
      vertex 0 36 32
    endloop
  endfacet
  facet normal -1 0 0
    outer loop
      vertex 0 2 24
      vertex 0 36 0
      vertex 0 2 0
    endloop
  endfacet
  facet normal -1 0 0
    outer loop
      vertex 0 2 32
      vertex 0 36 32
      vertex 0 2 24
    endloop
  endfacet
  facet normal -1 0 0
    outer loop
      vertex 0 36 32
      vertex 0 2 32
      vertex 0 36 34
    endloop
  endfacet
  facet normal -1 -0 0
    outer loop
      vertex 0 36 34
      vertex 0 2 32
      vertex 0 2 34
    endloop
  endfacet
  facet normal -1 0 0
    outer loop
      vertex 0 40.9914 27.7384
      vertex 0 40.9914 28.2616
      vertex 0 41 28
    endloop
  endfacet
  facet normal -1 0 0
    outer loop
      vertex 0 40.9658 27.4779
      vertex 0 40.9914 28.2616
      vertex 0 40.9914 27.7384
    endloop
  endfacet
  facet normal -1 0 0
    outer loop
      vertex 0 40.9658 27.4779
      vertex 0 40.9658 28.5221
      vertex 0 40.9914 28.2616
    endloop
  endfacet
  facet normal -1 0 0
    outer loop
      vertex 0 40.9231 27.2196
      vertex 0 40.9658 28.5221
      vertex 0 40.9658 27.4779
    endloop
  endfacet
  facet normal -1 0 0
    outer loop
      vertex 0 40.9231 27.2196
      vertex 0 40.9231 28.7804
      vertex 0 40.9658 28.5221
    endloop
  endfacet
  facet normal -1 0 0
    outer loop
      vertex 0 40.8637 26.9647
      vertex 0 40.9231 28.7804
      vertex 0 40.9231 27.2196
    endloop
  endfacet
  facet normal -1 0 0
    outer loop
      vertex 0 40.8637 26.9647
      vertex 0 40.8637 29.0353
      vertex 0 40.9231 28.7804
    endloop
  endfacet
  facet normal -1 0 0
    outer loop
      vertex 0 40.7877 26.7142
      vertex 0 40.8637 29.0353
      vertex 0 40.8637 26.9647
    endloop
  endfacet
  facet normal -1 0 0
    outer loop
      vertex 0 40.7877 26.7142
      vertex 0 40.7877 29.2858
      vertex 0 40.8637 29.0353
    endloop
  endfacet
  facet normal -1 0 0
    outer loop
      vertex 0 40.6955 26.4693
      vertex 0 40.7877 29.2858
      vertex 0 40.7877 26.7142
    endloop
  endfacet
  facet normal -1 0 0
    outer loop
      vertex 0 40.6955 26.4693
      vertex 0 40.6955 29.5307
      vertex 0 40.7877 29.2858
    endloop
  endfacet
  facet normal -1 0 0
    outer loop
      vertex 0 40.5875 26.2308
      vertex 0 40.6955 29.5307
      vertex 0 40.6955 26.4693
    endloop
  endfacet
  facet normal -1 0 0
    outer loop
      vertex 0 40.5875 26.2308
      vertex 0 40.5875 29.7692
      vertex 0 40.6955 29.5307
    endloop
  endfacet
  facet normal -1 0 0
    outer loop
      vertex 0 40.4641 26
      vertex 0 40.5875 29.7692
      vertex 0 40.5875 26.2308
    endloop
  endfacet
  facet normal -1 0 0
    outer loop
      vertex 0 40.4641 26
      vertex 0 40.4641 30
      vertex 0 40.5875 29.7692
    endloop
  endfacet
  facet normal -1 0 0
    outer loop
      vertex 0 40.3259 25.7777
      vertex 0 40.4641 30
      vertex 0 40.4641 26
    endloop
  endfacet
  facet normal -1 0 0
    outer loop
      vertex 0 40.3259 25.7777
      vertex 0 40.3259 30.2223
      vertex 0 40.4641 30
    endloop
  endfacet
  facet normal -1 0 0
    outer loop
      vertex 0 40.1734 25.565
      vertex 0 40.3259 30.2223
      vertex 0 40.3259 25.7777
    endloop
  endfacet
  facet normal -1 0 0
    outer loop
      vertex 0 40.1734 25.565
      vertex 0 40.1734 30.435
      vertex 0 40.3259 30.2223
    endloop
  endfacet
  facet normal -1 0 0
    outer loop
      vertex 0 40.0074 25.3626
      vertex 0 40.1734 30.435
      vertex 0 40.1734 25.565
    endloop
  endfacet
  facet normal -1 0 0
    outer loop
      vertex 0 40.0074 25.3626
      vertex 0 40.0074 30.6374
      vertex 0 40.1734 30.435
    endloop
  endfacet
  facet normal -1 0 0
    outer loop
      vertex 0 39.8284 25.1716
      vertex 0 40.0074 30.6374
      vertex 0 40.0074 25.3626
    endloop
  endfacet
  facet normal -1 0 0
    outer loop
      vertex 0 39.8284 25.1716
      vertex 0 39.8284 30.8284
      vertex 0 40.0074 30.6374
    endloop
  endfacet
  facet normal -1 0 0
    outer loop
      vertex 0 39.6374 24.9926
      vertex 0 39.8284 30.8284
      vertex 0 39.8284 25.1716
    endloop
  endfacet
  facet normal -1 0 0
    outer loop
      vertex 0 39.6374 24.9926
      vertex 0 39.6374 31.0074
      vertex 0 39.8284 30.8284
    endloop
  endfacet
  facet normal -1 0 0
    outer loop
      vertex 0 39.435 24.8266
      vertex 0 39.6374 31.0074
      vertex 0 39.6374 24.9926
    endloop
  endfacet
  facet normal -1 0 0
    outer loop
      vertex 0 39.435 24.8266
      vertex 0 39.435 31.1734
      vertex 0 39.6374 31.0074
    endloop
  endfacet
  facet normal -1 0 0
    outer loop
      vertex 0 39.2223 24.6741
      vertex 0 39.435 31.1734
      vertex 0 39.435 24.8266
    endloop
  endfacet
  facet normal -1 0 0
    outer loop
      vertex 0 39.2223 24.6741
      vertex 0 39.2223 31.3259
      vertex 0 39.435 31.1734
    endloop
  endfacet
  facet normal -1 0 0
    outer loop
      vertex 0 39 24.5359
      vertex 0 39.2223 31.3259
      vertex 0 39.2223 24.6741
    endloop
  endfacet
  facet normal -1 0 0
    outer loop
      vertex 0 39 24.5359
      vertex 0 39 31.4641
      vertex 0 39.2223 31.3259
    endloop
  endfacet
  facet normal -1 0 0
    outer loop
      vertex 0 38.7692 24.4125
      vertex 0 39 31.4641
      vertex 0 39 24.5359
    endloop
  endfacet
  facet normal -1 0 0
    outer loop
      vertex 0 38.7692 24.4125
      vertex 0 38.7692 31.5875
      vertex 0 39 31.4641
    endloop
  endfacet
  facet normal -1 0 0
    outer loop
      vertex 0 38.5307 24.3045
      vertex 0 38.7692 31.5875
      vertex 0 38.7692 24.4125
    endloop
  endfacet
  facet normal -1 0 0
    outer loop
      vertex 0 38.5307 24.3045
      vertex 0 38.5307 31.6955
      vertex 0 38.7692 31.5875
    endloop
  endfacet
  facet normal -1 0 0
    outer loop
      vertex 0 38.2858 24.2123
      vertex 0 38.5307 31.6955
      vertex 0 38.5307 24.3045
    endloop
  endfacet
  facet normal -1 0 0
    outer loop
      vertex 0 38.2858 24.2123
      vertex 0 38.2858 31.7877
      vertex 0 38.5307 31.6955
    endloop
  endfacet
  facet normal -1 0 0
    outer loop
      vertex 0 38.0353 24.1363
      vertex 0 38.2858 31.7877
      vertex 0 38.2858 24.2123
    endloop
  endfacet
  facet normal -1 0 0
    outer loop
      vertex 0 38.0353 24.1363
      vertex 0 38.0353 31.8637
      vertex 0 38.2858 31.7877
    endloop
  endfacet
  facet normal -1 0 0
    outer loop
      vertex 0 37.7804 24.0769
      vertex 0 38.0353 31.8637
      vertex 0 38.0353 24.1363
    endloop
  endfacet
  facet normal -1 0 0
    outer loop
      vertex 0 37.7804 24.0769
      vertex 0 37.7804 31.9231
      vertex 0 38.0353 31.8637
    endloop
  endfacet
  facet normal -1 0 0
    outer loop
      vertex 0 37.5221 24.0342
      vertex 0 37.7804 31.9231
      vertex 0 37.7804 24.0769
    endloop
  endfacet
  facet normal -1 0 0
    outer loop
      vertex 0 37.5221 24.0342
      vertex 0 37.5221 31.9658
      vertex 0 37.7804 31.9231
    endloop
  endfacet
  facet normal -1 0 0
    outer loop
      vertex 0 37.2616 24.0086
      vertex 0 37.5221 31.9658
      vertex 0 37.5221 24.0342
    endloop
  endfacet
  facet normal -1 0 0
    outer loop
      vertex 0 37.2616 24.0086
      vertex 0 37.2616 31.9914
      vertex 0 37.5221 31.9658
    endloop
  endfacet
  facet normal -1 0 0
    outer loop
      vertex 0 37 24
      vertex 0 37.2616 31.9914
      vertex 0 37.2616 24.0086
    endloop
  endfacet
  facet normal -1 0 0
    outer loop
      vertex 0 37 24
      vertex 0 37 32
      vertex 0 37.2616 31.9914
    endloop
  endfacet
  facet normal -1 0 0
    outer loop
      vertex 0 36 24
      vertex 0 37 32
      vertex 0 37 24
    endloop
  endfacet
  facet normal -1 -0 0
    outer loop
      vertex 0 37 32
      vertex 0 36 24
      vertex 0 36 32
    endloop
  endfacet
  facet normal 0.707107 -0.707107 0
    outer loop
      vertex 72 0 34
      vertex 74 2 0
      vertex 74 2 34
    endloop
  endfacet
  facet normal 0.707107 -0.707107 0
    outer loop
      vertex 74 2 0
      vertex 72 0 34
      vertex 72 0 0
    endloop
  endfacet
  facet normal -0.408248 0.408248 0.816497
    outer loop
      vertex 2 38 34.01
      vertex 2 34 36.01
      vertex 4 36 36.01
    endloop
  endfacet
  facet normal -0.408248 0.408248 0.816497
    outer loop
      vertex 2 34 36.01
      vertex 2 38 34.01
      vertex 0 36 34.01
    endloop
  endfacet
  facet normal -0.707042 0.707171 0
    outer loop
      vertex 2 38 0
      vertex 1.78036 37.7804 24.0769
      vertex 2 38 24.1281
    endloop
  endfacet
  facet normal -0.707161 0.707052 -2.17038e-06
    outer loop
      vertex 2 38 0
      vertex 1.5221 37.5221 24.0342
      vertex 1.78036 37.7804 24.0769
    endloop
  endfacet
  facet normal -0.70712 0.707093 -5.38698e-07
    outer loop
      vertex 2 38 0
      vertex 1.26161 37.2616 24.0086
      vertex 1.5221 37.5221 24.0342
    endloop
  endfacet
  facet normal -0.707093 0.70712 1.12469e-06
    outer loop
      vertex 2 38 0
      vertex 1 37 24
      vertex 1.26161 37.2616 24.0086
    endloop
  endfacet
  facet normal -0.707107 0.707107 0
    outer loop
      vertex 0 36 0
      vertex 1 37 24
      vertex 2 38 0
    endloop
  endfacet
  facet normal -0.707107 0.707107 0
    outer loop
      vertex 1 37 24
      vertex 0 36 0
      vertex 0 36 24
    endloop
  endfacet
  facet normal -0.707042 0.707171 0
    outer loop
      vertex 1.78036 37.7804 31.9231
      vertex 2 38 34
      vertex 2 38 31.8719
    endloop
  endfacet
  facet normal -0.707159 0.707054 2.47656e-05
    outer loop
      vertex 1.5221 37.5221 31.9658
      vertex 2 38 34
      vertex 1.78036 37.7804 31.9231
    endloop
  endfacet
  facet normal -0.70712 0.707094 6.23327e-06
    outer loop
      vertex 1.26161 37.2616 31.9914
      vertex 2 38 34
      vertex 1.5221 37.5221 31.9658
    endloop
  endfacet
  facet normal -0.707093 0.70712 -1.32962e-05
    outer loop
      vertex 1 37 32
      vertex 2 38 34
      vertex 1.26161 37.2616 31.9914
    endloop
  endfacet
  facet normal -0.707107 0.707107 0
    outer loop
      vertex 0 36 34
      vertex 1 37 32
      vertex 0 36 32
    endloop
  endfacet
  facet normal -0.707107 0.707107 0
    outer loop
      vertex 1 37 32
      vertex 0 36 34
      vertex 2 38 34
    endloop
  endfacet
  facet normal 0.707107 -0 0.707107
    outer loop
      vertex 72 4 36.01
      vertex 74 36 34.01
      vertex 72 34 36.01
    endloop
  endfacet
  facet normal 0.707107 0 0.707107
    outer loop
      vertex 74 36 34.01
      vertex 72 4 36.01
      vertex 74 2 34.01
    endloop
  endfacet
  facet normal -0.707107 0 0.707107
    outer loop
      vertex 0 36 34.01
      vertex 2 4 36.01
      vertex 2 34 36.01
    endloop
  endfacet
  facet normal -0.707107 0 0.707107
    outer loop
      vertex 2 4 36.01
      vertex 0 36 34.01
      vertex 0 2 34.01
    endloop
  endfacet
  facet normal 0.408248 -0.408248 0.816497
    outer loop
      vertex 72 4 36.01
      vertex 72 0 34.01
      vertex 74 2 34.01
    endloop
  endfacet
  facet normal 0.408248 -0.408248 0.816497
    outer loop
      vertex 72 0 34.01
      vertex 72 4 36.01
      vertex 70 2 36.01
    endloop
  endfacet
  facet normal 0 0 1
    outer loop
      vertex 72 34 36.01
      vertex 71 29 36.01
      vertex 72 4 36.01
    endloop
  endfacet
  facet normal 0 0 1
    outer loop
      vertex 70 36 36.01
      vertex 71 29 36.01
      vertex 72 34 36.01
    endloop
  endfacet
  facet normal 0 0 1
    outer loop
      vertex 70 36 36.01
      vertex 57 29 36.01
      vertex 71 29 36.01
    endloop
  endfacet
  facet normal 0 0 1
    outer loop
      vertex 57 29 36.01
      vertex 4 36 36.01
      vertex 57 9 36.01
    endloop
  endfacet
  facet normal -0 0 1
    outer loop
      vertex 4 36 36.01
      vertex 57 29 36.01
      vertex 70 36 36.01
    endloop
  endfacet
  facet normal -0 0 1
    outer loop
      vertex 71 9 36.01
      vertex 72 4 36.01
      vertex 71 29 36.01
    endloop
  endfacet
  facet normal 0 0 1
    outer loop
      vertex 71 9 36.01
      vertex 70 2 36.01
      vertex 72 4 36.01
    endloop
  endfacet
  facet normal -0 0 1
    outer loop
      vertex 57 9 36.01
      vertex 70 2 36.01
      vertex 71 9 36.01
    endloop
  endfacet
  facet normal 0 0 1
    outer loop
      vertex 4 2 36.01
      vertex 57 9 36.01
      vertex 4 36 36.01
    endloop
  endfacet
  facet normal 0 0 1
    outer loop
      vertex 57 9 36.01
      vertex 4 2 36.01
      vertex 70 2 36.01
    endloop
  endfacet
  facet normal -0 0 1
    outer loop
      vertex 2 34 36.01
      vertex 4 2 36.01
      vertex 4 36 36.01
    endloop
  endfacet
  facet normal 0 0 1
    outer loop
      vertex 4 2 36.01
      vertex 2 34 36.01
      vertex 2 4 36.01
    endloop
  endfacet
  facet normal -0.408248 -0.408248 0.816497
    outer loop
      vertex 2 4 36.01
      vertex 2 0 34.01
      vertex 4 2 36.01
    endloop
  endfacet
  facet normal -0.408248 -0.408248 0.816497
    outer loop
      vertex 2 0 34.01
      vertex 2 4 36.01
      vertex 0 2 34.01
    endloop
  endfacet
  facet normal 0 1 -0
    outer loop
      vertex 29 38 10
      vertex 2 38 34
      vertex 72 38 34
    endloop
  endfacet
  facet normal 0 1 0
    outer loop
      vertex 2 38 34
      vertex 29 38 10
      vertex 2 38 31.8719
    endloop
  endfacet
  facet normal 0 1 0
    outer loop
      vertex 29 38 10
      vertex 72 38 34
      vertex 45 38 10
    endloop
  endfacet
  facet normal 0 1 -0
    outer loop
      vertex 72 38 0
      vertex 45 38 10
      vertex 72 38 34
    endloop
  endfacet
  facet normal 0 1 0
    outer loop
      vertex 45 38 10
      vertex 72 38 0
      vertex 45 38 0
    endloop
  endfacet
  facet normal 0 1 0
    outer loop
      vertex 2 38 31.8719
      vertex 29 38 10
      vertex 2 38 24.1281
    endloop
  endfacet
  facet normal 0 1 0
    outer loop
      vertex 2 38 0
      vertex 29 38 10
      vertex 29 38 0
    endloop
  endfacet
  facet normal 0 1 0
    outer loop
      vertex 29 38 10
      vertex 2 38 0
      vertex 2 38 24.1281
    endloop
  endfacet
  facet normal 0 0.707107 0.707107
    outer loop
      vertex 72 38 34.01
      vertex 4 36 36.01
      vertex 70 36 36.01
    endloop
  endfacet
  facet normal 0 0.707107 0.707107
    outer loop
      vertex 4 36 36.01
      vertex 72 38 34.01
      vertex 2 38 34.01
    endloop
  endfacet
  facet normal 0 -0.707107 0.707107
    outer loop
      vertex 2 0 34.01
      vertex 70 2 36.01
      vertex 4 2 36.01
    endloop
  endfacet
  facet normal 0 -0.707107 0.707107
    outer loop
      vertex 70 2 36.01
      vertex 2 0 34.01
      vertex 72 0 34.01
    endloop
  endfacet
  facet normal 1 0 0
    outer loop
      vertex 74 36 34
      vertex 74 25 6
      vertex 74 36 0
    endloop
  endfacet
  facet normal 1 0 0
    outer loop
      vertex 74 36 34
      vertex 74 13 6
      vertex 74 25 6
    endloop
  endfacet
  facet normal 1 -0 0
    outer loop
      vertex 74 2 34
      vertex 74 13 6
      vertex 74 36 34
    endloop
  endfacet
  facet normal 1 0 0
    outer loop
      vertex 74 2 0
      vertex 74 13 6
      vertex 74 2 34
    endloop
  endfacet
  facet normal 1 0 0
    outer loop
      vertex 74 13 6
      vertex 74 2 0
      vertex 74 13 0
    endloop
  endfacet
  facet normal 1 0 0
    outer loop
      vertex 74 36 0
      vertex 74 25 6
      vertex 74 25 0
    endloop
  endfacet
  facet normal 0.408248 0.408248 0.816497
    outer loop
      vertex 72 38 34.01
      vertex 72 34 36.01
      vertex 74 36 34.01
    endloop
  endfacet
  facet normal 0.408248 0.408248 0.816497
    outer loop
      vertex 72 34 36.01
      vertex 72 38 34.01
      vertex 70 36 36.01
    endloop
  endfacet
  facet normal 0.998371 0 0.0570499
    outer loop
      vertex 0 36 34
      vertex 0.114286 2.11429 32
      vertex 0.114286 35.8857 32
    endloop
  endfacet
  facet normal 0.998371 0 0.0570499
    outer loop
      vertex 0.114286 2.11429 32
      vertex 0 36 34
      vertex 0 2 34
    endloop
  endfacet
  facet normal 0.998371 0 0.0570499
    outer loop
      vertex 0.571429 35.4286 24
      vertex 1.94286 3.94286 0
      vertex 1.94286 34.0571 0
    endloop
  endfacet
  facet normal 0.998371 0 0.0570499
    outer loop
      vertex 1.94286 3.94286 0
      vertex 0.571429 35.4286 24
      vertex 0.571429 2.57143 24
    endloop
  endfacet
  facet normal -0.998371 0 0.0570569
    outer loop
      vertex 72.0571 13 0
      vertex 72.0571 3.94286 0
      vertex 72.4 13 6
    endloop
  endfacet
  facet normal -0.998371 0 0.0570569
    outer loop
      vertex 72.4 25 6
      vertex 72.0571 34.0571 0
      vertex 72.0571 25 0
    endloop
  endfacet
  facet normal -0.998371 -3.74859e-06 0.0570513
    outer loop
      vertex 72.0571 34.0571 0
      vertex 72.4 25 6
      vertex 74 36 34
    endloop
  endfacet
  facet normal -0.998371 0 0.0570498
    outer loop
      vertex 72.4 13 6
      vertex 74 36 34
      vertex 72.4 25 6
    endloop
  endfacet
  facet normal -0.998371 3.74858e-06 0.0570513
    outer loop
      vertex 74 2 34
      vertex 72.4 13 6
      vertex 72.0571 3.94286 0
    endloop
  endfacet
  facet normal -0.998371 0 0.0570498
    outer loop
      vertex 72.4 13 6
      vertex 74 2 34
      vertex 74 36 34
    endloop
  endfacet
  facet normal 0.704811 0.704807 0.0805512
    outer loop
      vertex 0 2 34
      vertex 1.22857 1 32
      vertex 0.114286 2.11429 32
    endloop
  endfacet
  facet normal 0.704809 0.704809 0.0805491
    outer loop
      vertex 2 0 34
      vertex 1.22857 1 32
      vertex 0 2 34
    endloop
  endfacet
  facet normal 0.704817 0.704802 0.0805423
    outer loop
      vertex 1.22857 1 32
      vertex 2 0 34
      vertex 1.49116 0.738387 31.9914
    endloop
  endfacet
  facet normal 0.704793 0.704825 0.080557
    outer loop
      vertex 1.49116 0.738387 31.9914
      vertex 2 0 34
      vertex 1.75459 0.477895 31.9658
    endloop
  endfacet
  facet normal 0.704819 0.7048 0.080548
    outer loop
      vertex 1.75459 0.477895 31.9658
      vertex 2 0 34
      vertex 2 0.237027 31.926
    endloop
  endfacet
  facet normal 0.704809 0.704809 0.0805497
    outer loop
      vertex 0.571429 2.57143 24
      vertex 3.94286 1.94286 0
      vertex 1.94286 3.94286 0
    endloop
  endfacet
  facet normal 0.704809 0.704809 0.0805497
    outer loop
      vertex 2 1.14286 24
      vertex 3.94286 1.94286 0
      vertex 0.571429 2.57143 24
    endloop
  endfacet
  facet normal 0.704811 0.704807 0.0805498
    outer loop
      vertex 2 0.237027 31.926
      vertex 3.94286 1.94286 0
      vertex 2 1.14286 24
    endloop
  endfacet
  facet normal 0.704803 0.704815 0.0805497
    outer loop
      vertex 3.94286 1.94286 0
      vertex 2 0.237027 31.926
      vertex 2 0 34
    endloop
  endfacet
  facet normal 0 -0.998371 0.0570486
    outer loop
      vertex 2 38 34
      vertex 29 36.6286 10
      vertex 72 38 34
    endloop
  endfacet
  facet normal 2.29149e-06 -0.998371 0.0570512
    outer loop
      vertex 3.94286 36.0571 0
      vertex 29 36.6286 10
      vertex 2 38 34
    endloop
  endfacet
  facet normal 0 -0.998371 0.0570569
    outer loop
      vertex 29 36.6286 10
      vertex 3.94286 36.0571 0
      vertex 29 36.0571 0
    endloop
  endfacet
  facet normal 0 -0.998371 0.0570486
    outer loop
      vertex 45 36.6286 10
      vertex 72 38 34
      vertex 29 36.6286 10
    endloop
  endfacet
  facet normal 0 -0.998371 0.0570569
    outer loop
      vertex 70.0571 36.0571 0
      vertex 45 36.6286 10
      vertex 45 36.0571 0
    endloop
  endfacet
  facet normal -2.2915e-06 -0.998371 0.0570512
    outer loop
      vertex 45 36.6286 10
      vertex 70.0571 36.0571 0
      vertex 72 38 34
    endloop
  endfacet
  facet normal 0 0 -1
    outer loop
      vertex 71 9 34.01
      vertex 74 2 34.01
      vertex 72 0 34.01
    endloop
  endfacet
  facet normal 0 0 -1
    outer loop
      vertex 74 2 34.01
      vertex 71 9 34.01
      vertex 74 36 34.01
    endloop
  endfacet
  facet normal 0 0 -1
    outer loop
      vertex 71 29 34.01
      vertex 74 36 34.01
      vertex 71 9 34.01
    endloop
  endfacet
  facet normal 0 0 -1
    outer loop
      vertex 72 0 34.01
      vertex 57 9 34.01
      vertex 71 9 34.01
    endloop
  endfacet
  facet normal -0 0 -1
    outer loop
      vertex 57 9 34.01
      vertex 2 0 34.01
      vertex 57 29 34.01
    endloop
  endfacet
  facet normal 0 0 -1
    outer loop
      vertex 2 0 34.01
      vertex 57 9 34.01
      vertex 72 0 34.01
    endloop
  endfacet
  facet normal -0 0 -1
    outer loop
      vertex 74 36 34.01
      vertex 71 29 34.01
      vertex 72 38 34.01
    endloop
  endfacet
  facet normal 0 0 -1
    outer loop
      vertex 57 29 34.01
      vertex 72 38 34.01
      vertex 71 29 34.01
    endloop
  endfacet
  facet normal 0 0 -1
    outer loop
      vertex 2 38 34.01
      vertex 57 29 34.01
      vertex 2 0 34.01
    endloop
  endfacet
  facet normal 0 0 -1
    outer loop
      vertex 57 29 34.01
      vertex 2 38 34.01
      vertex 72 38 34.01
    endloop
  endfacet
  facet normal 0 0 -1
    outer loop
      vertex 0 2 34.01
      vertex 2 38 34.01
      vertex 2 0 34.01
    endloop
  endfacet
  facet normal 0 0 -1
    outer loop
      vertex 2 38 34.01
      vertex 0 2 34.01
      vertex 0 36 34.01
    endloop
  endfacet
  facet normal 0.704865 -0.704755 0.0805338
    outer loop
      vertex 2 38 34
      vertex 1.75459 37.5221 31.9658
      vertex 2 37.763 31.926
    endloop
  endfacet
  facet normal 0.704803 -0.704814 0.080555
    outer loop
      vertex 2 38 34
      vertex 1.49116 37.2616 31.9914
      vertex 1.75459 37.5221 31.9658
    endloop
  endfacet
  facet normal 0.704799 -0.704818 0.0805574
    outer loop
      vertex 2 38 34
      vertex 1.22857 37 32
      vertex 1.49116 37.2616 31.9914
    endloop
  endfacet
  facet normal 0.704809 -0.704809 0.0805491
    outer loop
      vertex 0 36 34
      vertex 1.22857 37 32
      vertex 2 38 34
    endloop
  endfacet
  facet normal 0.704814 -0.704804 0.0805547
    outer loop
      vertex 1.22857 37 32
      vertex 0 36 34
      vertex 0.114286 35.8857 32
    endloop
  endfacet
  facet normal 0.704716 -0.704902 0.0805506
    outer loop
      vertex 2 37.763 31.926
      vertex 3.94286 36.0571 0
      vertex 2 38 34
    endloop
  endfacet
  facet normal 0.704848 -0.70477 0.0805515
    outer loop
      vertex 2 36.8571 24
      vertex 3.94286 36.0571 0
      vertex 2 37.763 31.926
    endloop
  endfacet
  facet normal 0.704792 -0.704827 0.0805489
    outer loop
      vertex 0.571429 35.4286 24
      vertex 3.94286 36.0571 0
      vertex 2 36.8571 24
    endloop
  endfacet
  facet normal 0.704809 -0.704809 0.0805518
    outer loop
      vertex 3.94286 36.0571 0
      vertex 0.571429 35.4286 24
      vertex 1.94286 34.0571 0
    endloop
  endfacet
  facet normal -0.704809 0.704809 0.0805506
    outer loop
      vertex 70.0571 1.94286 0
      vertex 74 2 34
      vertex 72.0571 3.94286 0
    endloop
  endfacet
  facet normal -0.704809 0.704809 0.0805506
    outer loop
      vertex 74 2 34
      vertex 70.0571 1.94286 0
      vertex 72 0 34
    endloop
  endfacet
  facet normal -0.704809 -0.704809 0.0805514
    outer loop
      vertex 70.0571 36.0571 0
      vertex 74 36 34
      vertex 72 38 34
    endloop
  endfacet
  facet normal -0.704809 -0.704809 0.0805514
    outer loop
      vertex 74 36 34
      vertex 70.0571 36.0571 0
      vertex 72.0571 34.0571 0
    endloop
  endfacet
  facet normal 0 0.998371 0.0570498
    outer loop
      vertex 72 0 34
      vertex 45 1.37143 10
      vertex 2 0 34
    endloop
  endfacet
  facet normal -2.2915e-08 0.998371 0.0570499
    outer loop
      vertex 70.0571 1.94286 0
      vertex 45 1.37143 10
      vertex 72 0 34
    endloop
  endfacet
  facet normal 0 0.998371 0.0570499
    outer loop
      vertex 45 1.37143 10
      vertex 70.0571 1.94286 0
      vertex 45 1.94286 0
    endloop
  endfacet
  facet normal -0 0.998371 0.0570498
    outer loop
      vertex 29 1.37143 10
      vertex 2 0 34
      vertex 45 1.37143 10
    endloop
  endfacet
  facet normal -0 0.998371 0.0570499
    outer loop
      vertex 3.94286 1.94286 0
      vertex 29 1.37143 10
      vertex 29 1.94286 0
    endloop
  endfacet
  facet normal 2.29149e-08 0.998371 0.0570499
    outer loop
      vertex 29 1.37143 10
      vertex 3.94286 1.94286 0
      vertex 2 0 34
    endloop
  endfacet
  facet normal 0 0.773208 0.634153
    outer loop
      vertex 2 40.1734 30.435
      vertex 0 40.0074 30.6374
      vertex 2 40.0074 30.6374
    endloop
  endfacet
  facet normal 0 0.773208 0.634153
    outer loop
      vertex 0 40.0074 30.6374
      vertex 2 40.1734 30.435
      vertex 0 40.1734 30.435
    endloop
  endfacet
  facet normal 0 -0.849228 0.528026
    outer loop
      vertex 0 -2.4641 30
      vertex 2 -2.32588 30.2223
      vertex 0 -2.32588 30.2223
    endloop
  endfacet
  facet normal 0 -0.849228 0.528026
    outer loop
      vertex 2 -2.32588 30.2223
      vertex 0 -2.4641 30
      vertex 2 -2.4641 30
    endloop
  endfacet
  facet normal 0 -0.0978044 -0.995206
    outer loop
      vertex 0 0.477895 24.0342
      vertex 1.26161 0.738387 24.0086
      vertex 1.52211 0.477895 24.0342
    endloop
  endfacet
  facet normal -0 -0.0978044 -0.995206
    outer loop
      vertex 1.26161 0.738387 24.0086
      vertex 0 0.477895 24.0342
      vertex 0 0.738387 24.0086
    endloop
  endfacet
  facet normal 0 -0.995184 0.0980285
    outer loop
      vertex 0 -2.99144 28.2616
      vertex 2 -2.96578 28.5221
      vertex 0 -2.96578 28.5221
    endloop
  endfacet
  facet normal 0 -0.995184 0.0980285
    outer loop
      vertex 2 -2.96578 28.5221
      vertex 0 -2.99144 28.2616
      vertex 2 -2.99144 28.2616
    endloop
  endfacet
  facet normal 0 0.935873 -0.352338
    outer loop
      vertex 2 40.6955 26.4693
      vertex 0 40.7877 26.7142
      vertex 2 40.7877 26.7142
    endloop
  endfacet
  facet normal 0 0.935873 -0.352338
    outer loop
      vertex 0 40.7877 26.7142
      vertex 2 40.6955 26.4693
      vertex 0 40.6955 26.4693
    endloop
  endfacet
  facet normal -0 0.290325 0.956928
    outer loop
      vertex 0 38.2858 31.7877
      vertex 2 38.0353 31.8637
      vertex 2 38.2858 31.7877
    endloop
  endfacet
  facet normal 0 0.290325 0.956928
    outer loop
      vertex 2 38.0353 31.8637
      vertex 0 38.2858 31.7877
      vertex 0 38.0353 31.8637
    endloop
  endfacet
  facet normal -0 0.634153 0.773208
    outer loop
      vertex 0 39.6374 31.0074
      vertex 2 39.435 31.1734
      vertex 2 39.6374 31.0074
    endloop
  endfacet
  facet normal 0 0.634153 0.773208
    outer loop
      vertex 2 39.435 31.1734
      vertex 0 39.6374 31.0074
      vertex 0 39.435 31.1734
    endloop
  endfacet
  facet normal 0 0.8127 -0.582683
    outer loop
      vertex 2 40.1734 25.565
      vertex 0 40.3259 25.7777
      vertex 2 40.3259 25.7777
    endloop
  endfacet
  facet normal 0 0.8127 -0.582683
    outer loop
      vertex 0 40.3259 25.7777
      vertex 2 40.1734 25.565
      vertex 0 40.1734 25.565
    endloop
  endfacet
  facet normal 0 -0.0328552 0.99946
    outer loop
      vertex 0 0.738387 31.9914
      vertex 1 1 32
      vertex 0 1 32
    endloop
  endfacet
  facet normal 0 -0.0328552 0.99946
    outer loop
      vertex 1 1 32
      vertex 0 0.738387 31.9914
      vertex 1.26161 0.738387 31.9914
    endloop
  endfacet
  facet normal 0 -0.0328552 0.99946
    outer loop
      vertex 2 1 32
      vertex 1.49116 0.738387 31.9914
      vertex 2 0.738387 31.9914
    endloop
  endfacet
  facet normal 0 -0.0328552 0.99946
    outer loop
      vertex 1.49116 0.738387 31.9914
      vertex 2 1 32
      vertex 1.22857 1 32
    endloop
  endfacet
  facet normal -0 0.352338 0.935873
    outer loop
      vertex 0 38.5307 31.6955
      vertex 2 38.2858 31.7877
      vertex 2 38.5307 31.6955
    endloop
  endfacet
  facet normal 0 0.352338 0.935873
    outer loop
      vertex 2 38.2858 31.7877
      vertex 0 38.5307 31.6955
      vertex 0 38.2858 31.7877
    endloop
  endfacet
  facet normal 0 -0.290345 -0.956922
    outer loop
      vertex 0 -0.285757 24.2123
      vertex 2 -0.0352755 24.1363
      vertex 2 -0.285757 24.2123
    endloop
  endfacet
  facet normal -0 -0.290345 -0.956922
    outer loop
      vertex 2 -0.0352755 24.1363
      vertex 0 -0.285757 24.2123
      vertex 0 -0.0352755 24.1363
    endloop
  endfacet
  facet normal -0 0.683814 0.729656
    outer loop
      vertex 0 39.8284 30.8284
      vertex 2 39.6374 31.0074
      vertex 2 39.8284 30.8284
    endloop
  endfacet
  facet normal 0 0.683814 0.729656
    outer loop
      vertex 2 39.6374 31.0074
      vertex 0 39.8284 30.8284
      vertex 0 39.6374 31.0074
    endloop
  endfacet
  facet normal 0 0.0978014 -0.995206
    outer loop
      vertex 0 37.5221 24.0342
      vertex 1.26161 37.2616 24.0086
      vertex 0 37.2616 24.0086
    endloop
  endfacet
  facet normal 0 0.0978014 -0.995206
    outer loop
      vertex 1.26161 37.2616 24.0086
      vertex 0 37.5221 24.0342
      vertex 1.5221 37.5221 24.0342
    endloop
  endfacet
  facet normal 0 0.8127 0.582683
    outer loop
      vertex 2 40.3259 30.2223
      vertex 0 40.1734 30.435
      vertex 2 40.1734 30.435
    endloop
  endfacet
  facet normal 0 0.8127 0.582683
    outer loop
      vertex 0 40.1734 30.435
      vertex 2 40.3259 30.2223
      vertex 0 40.3259 30.2223
    endloop
  endfacet
  facet normal -0 0.582683 0.8127
    outer loop
      vertex 0 39.435 31.1734
      vertex 2 39.2223 31.3259
      vertex 2 39.435 31.1734
    endloop
  endfacet
  facet normal 0 0.582683 0.8127
    outer loop
      vertex 2 39.2223 31.3259
      vertex 0 39.435 31.1734
      vertex 0 39.2223 31.3259
    endloop
  endfacet
  facet normal -0 0.0328569 0.99946
    outer loop
      vertex 0 37.2616 31.9914
      vertex 1 37 32
      vertex 1.26161 37.2616 31.9914
    endloop
  endfacet
  facet normal 0 0.0328569 0.99946
    outer loop
      vertex 1 37 32
      vertex 0 37.2616 31.9914
      vertex 0 37 32
    endloop
  endfacet
  facet normal -0 0.0328569 0.99946
    outer loop
      vertex 1.49116 37.2616 31.9914
      vertex 2 37 32
      vertex 2 37.2616 31.9914
    endloop
  endfacet
  facet normal 0 0.0328569 0.99946
    outer loop
      vertex 2 37 32
      vertex 1.49116 37.2616 31.9914
      vertex 1.22857 37 32
    endloop
  endfacet
  facet normal 0 0.99946 -0.0328569
    outer loop
      vertex 2 40.9914 27.7384
      vertex 0 41 28
      vertex 2 41 28
    endloop
  endfacet
  facet normal 0 0.99946 -0.0328569
    outer loop
      vertex 0 41 28
      vertex 2 40.9914 27.7384
      vertex 0 40.9914 27.7384
    endloop
  endfacet
  facet normal 0 0.973906 -0.226952
    outer loop
      vertex 2 40.8637 26.9647
      vertex 0 40.9231 27.2196
      vertex 2 40.9231 27.2196
    endloop
  endfacet
  facet normal 0 0.973906 -0.226952
    outer loop
      vertex 0 40.9231 27.2196
      vertex 2 40.8637 26.9647
      vertex 0 40.8637 26.9647
    endloop
  endfacet
  facet normal 0 -0.995184 -0.0980285
    outer loop
      vertex 0 -2.96578 27.4779
      vertex 2 -2.99144 27.7384
      vertex 0 -2.99144 27.7384
    endloop
  endfacet
  facet normal 0 -0.995184 -0.0980285
    outer loop
      vertex 2 -2.99144 27.7384
      vertex 0 -2.96578 27.4779
      vertex 2 -2.96578 27.4779
    endloop
  endfacet
  facet normal 0 -0.935873 -0.352338
    outer loop
      vertex 0 -2.69552 26.4693
      vertex 2 -2.78772 26.7142
      vertex 0 -2.78772 26.7142
    endloop
  endfacet
  facet normal 0 -0.935873 -0.352338
    outer loop
      vertex 2 -2.78772 26.7142
      vertex 0 -2.69552 26.4693
      vertex 2 -2.69552 26.4693
    endloop
  endfacet
  facet normal 0 -0.41262 -0.910903
    outer loop
      vertex 0 -0.769155 24.4125
      vertex 2 -0.530733 24.3045
      vertex 2 -0.769155 24.4125
    endloop
  endfacet
  facet normal -0 -0.41262 -0.910903
    outer loop
      vertex 2 -0.530733 24.3045
      vertex 0 -0.769155 24.4125
      vertex 0 -0.530733 24.3045
    endloop
  endfacet
  facet normal 0 -0.634284 0.7731
    outer loop
      vertex 0 -1.43505 31.1734
      vertex 2 -1.63738 31.0074
      vertex 2 -1.43505 31.1734
    endloop
  endfacet
  facet normal 0 -0.634284 0.7731
    outer loop
      vertex 2 -1.63738 31.0074
      vertex 0 -1.43505 31.1734
      vertex 0 -1.63738 31.0074
    endloop
  endfacet
  facet normal 0 -0.528006 0.849241
    outer loop
      vertex 0 -1 31.4641
      vertex 2 -1.22228 31.3259
      vertex 2 -1 31.4641
    endloop
  endfacet
  facet normal 0 -0.528006 0.849241
    outer loop
      vertex 2 -1.22228 31.3259
      vertex 0 -1 31.4641
      vertex 0 -1.22228 31.3259
    endloop
  endfacet
  facet normal -0 0.4715 0.881866
    outer loop
      vertex 0 39 31.4641
      vertex 2 38.7692 31.5875
      vertex 2 39 31.4641
    endloop
  endfacet
  facet normal 0 0.4715 0.881866
    outer loop
      vertex 2 38.7692 31.5875
      vertex 0 39 31.4641
      vertex 0 38.7692 31.5875
    endloop
  endfacet
  facet normal -0 0.527971 0.849262
    outer loop
      vertex 0 39.2223 31.3259
      vertex 2 39 31.4641
      vertex 2 39.2223 31.3259
    endloop
  endfacet
  facet normal 0 0.527971 0.849262
    outer loop
      vertex 2 39 31.4641
      vertex 0 39.2223 31.3259
      vertex 0 39 31.4641
    endloop
  endfacet
  facet normal 0 -0.999465 0.0327042
    outer loop
      vertex 0 -3 28
      vertex 2 -2.99144 28.2616
      vertex 0 -2.99144 28.2616
    endloop
  endfacet
  facet normal 0 -0.999465 0.0327042
    outer loop
      vertex 2 -2.99144 28.2616
      vertex 0 -3 28
      vertex 2 -3 28
    endloop
  endfacet
  facet normal 0 0.773208 -0.634153
    outer loop
      vertex 2 40.0074 25.3626
      vertex 0 40.1734 25.565
      vertex 2 40.1734 25.565
    endloop
  endfacet
  facet normal 0 0.773208 -0.634153
    outer loop
      vertex 0 40.1734 25.565
      vertex 2 40.0074 25.3626
      vertex 0 40.0074 25.3626
    endloop
  endfacet
  facet normal 0 0.163004 0.986625
    outer loop
      vertex 2 37.763 31.926
      vertex 1.75459 37.5221 31.9658
      vertex 2 37.5221 31.9658
    endloop
  endfacet
  facet normal -0 0.163098 0.98661
    outer loop
      vertex 0 37.7804 31.9231
      vertex 1.5221 37.5221 31.9658
      vertex 1.78036 37.7804 31.9231
    endloop
  endfacet
  facet normal 0 0.163098 0.98661
    outer loop
      vertex 1.5221 37.5221 31.9658
      vertex 0 37.7804 31.9231
      vertex 0 37.5221 31.9658
    endloop
  endfacet
  facet normal -0 0.0978014 0.995206
    outer loop
      vertex 1.75459 37.5221 31.9658
      vertex 2 37.2616 31.9914
      vertex 2 37.5221 31.9658
    endloop
  endfacet
  facet normal 0 0.0978014 0.995206
    outer loop
      vertex 2 37.2616 31.9914
      vertex 1.75459 37.5221 31.9658
      vertex 1.49116 37.2616 31.9914
    endloop
  endfacet
  facet normal -0 0.0978014 0.995206
    outer loop
      vertex 0 37.5221 31.9658
      vertex 1.26161 37.2616 31.9914
      vertex 1.5221 37.5221 31.9658
    endloop
  endfacet
  facet normal 0 0.0978014 0.995206
    outer loop
      vertex 1.26161 37.2616 31.9914
      vertex 0 37.5221 31.9658
      vertex 0 37.2616 31.9914
    endloop
  endfacet
  facet normal 0 0.956928 0.290325
    outer loop
      vertex 2 40.8637 29.0353
      vertex 0 40.7877 29.2858
      vertex 2 40.7877 29.2858
    endloop
  endfacet
  facet normal 0 0.956928 0.290325
    outer loop
      vertex 0 40.7877 29.2858
      vertex 2 40.8637 29.0353
      vertex 0 40.8637 29.0353
    endloop
  endfacet
  facet normal 0 -0.999465 -0.0327042
    outer loop
      vertex 0 -2.99144 27.7384
      vertex 2 -3 28
      vertex 0 -3 28
    endloop
  endfacet
  facet normal 0 -0.999465 -0.0327042
    outer loop
      vertex 2 -3 28
      vertex 0 -2.99144 27.7384
      vertex 2 -2.99144 27.7384
    endloop
  endfacet
  facet normal 0.000834199 0.22627 0.974064
    outer loop
      vertex 2 38.0353 31.8637
      vertex 1.78036 37.7804 31.9231
      vertex 2 38 31.8719
    endloop
  endfacet
  facet normal -0 0.226952 0.973906
    outer loop
      vertex 0 38.0353 31.8637
      vertex 1.78036 37.7804 31.9231
      vertex 2 38.0353 31.8637
    endloop
  endfacet
  facet normal 0 0.226952 0.973906
    outer loop
      vertex 1.78036 37.7804 31.9231
      vertex 0 38.0353 31.8637
      vertex 0 37.7804 31.9231
    endloop
  endfacet
  facet normal 0 -0.72979 -0.683672
    outer loop
      vertex 0 -1.82843 25.1716
      vertex 2 -2.00736 25.3626
      vertex 0 -2.00736 25.3626
    endloop
  endfacet
  facet normal 0 -0.72979 -0.683672
    outer loop
      vertex 2 -2.00736 25.3626
      vertex 0 -1.82843 25.1716
      vertex 2 -1.82843 25.1716
    endloop
  endfacet
  facet normal 0 0.729656 0.683814
    outer loop
      vertex 2 40.0074 30.6374
      vertex 0 39.8284 30.8284
      vertex 2 39.8284 30.8284
    endloop
  endfacet
  facet normal 0 0.729656 0.683814
    outer loop
      vertex 0 39.8284 30.8284
      vertex 2 40.0074 30.6374
      vertex 0 40.0074 30.6374
    endloop
  endfacet
  facet normal 0 0.849262 -0.527971
    outer loop
      vertex 2 40.3259 25.7777
      vertex 0 40.4641 26
      vertex 2 40.4641 26
    endloop
  endfacet
  facet normal 0 0.849262 -0.527971
    outer loop
      vertex 0 40.4641 26
      vertex 2 40.3259 25.7777
      vertex 0 40.3259 25.7777
    endloop
  endfacet
  facet normal 0 0.849262 0.527971
    outer loop
      vertex 2 40.4641 30
      vertex 0 40.3259 30.2223
      vertex 2 40.3259 30.2223
    endloop
  endfacet
  facet normal 0 0.849262 0.527971
    outer loop
      vertex 0 40.3259 30.2223
      vertex 2 40.4641 30
      vertex 0 40.4641 30
    endloop
  endfacet
  facet normal 0 0.634153 -0.773208
    outer loop
      vertex 0 39.435 24.8266
      vertex 2 39.6374 24.9926
      vertex 2 39.435 24.8266
    endloop
  endfacet
  facet normal 0 0.634153 -0.773208
    outer loop
      vertex 2 39.6374 24.9926
      vertex 0 39.435 24.8266
      vertex 0 39.6374 24.9926
    endloop
  endfacet
  facet normal 0 0.910954 0.412508
    outer loop
      vertex 2 40.6955 29.5307
      vertex 0 40.5875 29.7692
      vertex 2 40.5875 29.7692
    endloop
  endfacet
  facet normal 0 0.910954 0.412508
    outer loop
      vertex 0 40.5875 29.7692
      vertex 2 40.6955 29.5307
      vertex 0 40.6955 29.5307
    endloop
  endfacet
  facet normal 0 -0.0328552 -0.99946
    outer loop
      vertex 0 0.738387 24.0086
      vertex 1 1 24
      vertex 1.26161 0.738387 24.0086
    endloop
  endfacet
  facet normal -0 -0.0328552 -0.99946
    outer loop
      vertex 1 1 24
      vertex 0 0.738387 24.0086
      vertex 0 1 24
    endloop
  endfacet
  facet normal 0 -0.352242 -0.935909
    outer loop
      vertex 0 -0.530733 24.3045
      vertex 2 -0.285757 24.2123
      vertex 2 -0.530733 24.3045
    endloop
  endfacet
  facet normal -0 -0.352242 -0.935909
    outer loop
      vertex 2 -0.285757 24.2123
      vertex 0 -0.530733 24.3045
      vertex 0 -0.285757 24.2123
    endloop
  endfacet
  facet normal -0 0 1
    outer loop
      vertex 0 37 32
      vertex 0 36 32
      vertex 1 37 32
    endloop
  endfacet
  facet normal 0 0 1
    outer loop
      vertex 0.114286 35.8857 32
      vertex 2 37 32
      vertex 1.22857 37 32
    endloop
  endfacet
  facet normal 0 0 1
    outer loop
      vertex 2 37 32
      vertex 0.114286 35.8857 32
      vertex 2 1 32
    endloop
  endfacet
  facet normal -0 0 1
    outer loop
      vertex 0.114286 2.11429 32
      vertex 2 1 32
      vertex 0.114286 35.8857 32
    endloop
  endfacet
  facet normal 0 0 1
    outer loop
      vertex 2 1 32
      vertex 0.114286 2.11429 32
      vertex 1.22857 1 32
    endloop
  endfacet
  facet normal 0 0 1
    outer loop
      vertex 0 2 32
      vertex 0 1 32
      vertex 1 1 32
    endloop
  endfacet
  facet normal 0.000637879 -0.226419 0.97403
    outer loop
      vertex 1.78036 0.219638 31.9231
      vertex 2 -0.0352755 31.8637
      vertex 2 0 31.8719
    endloop
  endfacet
  facet normal 0 -0.22694 0.973909
    outer loop
      vertex 0 -0.0352755 31.8637
      vertex 1.78036 0.219638 31.9231
      vertex 0 0.219638 31.9231
    endloop
  endfacet
  facet normal 0 -0.22694 0.973909
    outer loop
      vertex 1.78036 0.219638 31.9231
      vertex 0 -0.0352755 31.8637
      vertex 2 -0.0352755 31.8637
    endloop
  endfacet
  facet normal 0 0.527971 -0.849262
    outer loop
      vertex 0 39 24.5359
      vertex 2 39.2223 24.6741
      vertex 2 39 24.5359
    endloop
  endfacet
  facet normal 0 0.527971 -0.849262
    outer loop
      vertex 2 39.2223 24.6741
      vertex 0 39 24.5359
      vertex 0 39.2223 24.6741
    endloop
  endfacet
  facet normal 0 0.98661 -0.163098
    outer loop
      vertex 2 40.9231 27.2196
      vertex 0 40.9658 27.4779
      vertex 2 40.9658 27.4779
    endloop
  endfacet
  facet normal 0 0.98661 -0.163098
    outer loop
      vertex 0 40.9658 27.4779
      vertex 2 40.9231 27.2196
      vertex 0 40.9231 27.2196
    endloop
  endfacet
  facet normal 0 -0.471429 0.881904
    outer loop
      vertex 0 -0.769155 31.5875
      vertex 2 -1 31.4641
      vertex 2 -0.769155 31.5875
    endloop
  endfacet
  facet normal 0 -0.471429 0.881904
    outer loop
      vertex 2 -1 31.4641
      vertex 0 -0.769155 31.5875
      vertex 0 -1 31.4641
    endloop
  endfacet
  facet normal 0 0.163098 -0.98661
    outer loop
      vertex 0 37.7804 24.0769
      vertex 1.5221 37.5221 24.0342
      vertex 0 37.5221 24.0342
    endloop
  endfacet
  facet normal 0 0.163098 -0.98661
    outer loop
      vertex 1.5221 37.5221 24.0342
      vertex 0 37.7804 24.0769
      vertex 1.78036 37.7804 24.0769
    endloop
  endfacet
  facet normal 0 0.881866 -0.4715
    outer loop
      vertex 2 40.4641 26
      vertex 0 40.5875 26.2308
      vertex 2 40.5875 26.2308
    endloop
  endfacet
  facet normal 0 0.881866 -0.4715
    outer loop
      vertex 0 40.5875 26.2308
      vertex 2 40.4641 26
      vertex 0 40.4641 26
    endloop
  endfacet
  facet normal 0 -0.849228 -0.528026
    outer loop
      vertex 0 -2.32588 25.7777
      vertex 2 -2.4641 26
      vertex 0 -2.4641 26
    endloop
  endfacet
  facet normal 0 -0.849228 -0.528026
    outer loop
      vertex 2 -2.4641 26
      vertex 0 -2.32588 25.7777
      vertex 2 -2.32588 25.7777
    endloop
  endfacet
  facet normal 0 0.910954 -0.412508
    outer loop
      vertex 2 40.5875 26.2308
      vertex 0 40.6955 26.4693
      vertex 2 40.6955 26.4693
    endloop
  endfacet
  facet normal 0 0.910954 -0.412508
    outer loop
      vertex 0 40.6955 26.4693
      vertex 2 40.5875 26.2308
      vertex 0 40.5875 26.2308
    endloop
  endfacet
  facet normal -0 0.412508 0.910954
    outer loop
      vertex 0 38.7692 31.5875
      vertex 2 38.5307 31.6955
      vertex 2 38.7692 31.5875
    endloop
  endfacet
  facet normal 0 0.412508 0.910954
    outer loop
      vertex 2 38.5307 31.6955
      vertex 0 38.7692 31.5875
      vertex 0 38.5307 31.6955
    endloop
  endfacet
  facet normal 0 -0.683719 0.729746
    outer loop
      vertex 0 -1.63738 31.0074
      vertex 2 -1.82843 30.8284
      vertex 2 -1.63738 31.0074
    endloop
  endfacet
  facet normal 0 -0.683719 0.729746
    outer loop
      vertex 2 -1.82843 30.8284
      vertex 0 -1.63738 31.0074
      vertex 0 -1.82843 30.8284
    endloop
  endfacet
  facet normal 0 -0.773114 0.634267
    outer loop
      vertex 0 -2.17341 30.435
      vertex 2 -2.00736 30.6374
      vertex 0 -2.00736 30.6374
    endloop
  endfacet
  facet normal 0 -0.773114 0.634267
    outer loop
      vertex 2 -2.00736 30.6374
      vertex 0 -2.17341 30.435
      vertex 2 -2.17341 30.435
    endloop
  endfacet
  facet normal 0 -0.163125 -0.986605
    outer loop
      vertex 0 0.219638 24.0769
      vertex 1.52211 0.477895 24.0342
      vertex 1.78036 0.219638 24.0769
    endloop
  endfacet
  facet normal -0 -0.163125 -0.986605
    outer loop
      vertex 1.52211 0.477895 24.0342
      vertex 0 0.219638 24.0769
      vertex 0 0.477895 24.0342
    endloop
  endfacet
  facet normal 0 0.99946 0.0328569
    outer loop
      vertex 2 41 28
      vertex 0 40.9914 28.2616
      vertex 2 40.9914 28.2616
    endloop
  endfacet
  facet normal 0 0.99946 0.0328569
    outer loop
      vertex 0 40.9914 28.2616
      vertex 2 41 28
      vertex 0 41 28
    endloop
  endfacet
  facet normal 0 -0.812754 0.582607
    outer loop
      vertex 0 -2.32588 30.2223
      vertex 2 -2.17341 30.435
      vertex 0 -2.17341 30.435
    endloop
  endfacet
  facet normal 0 -0.812754 0.582607
    outer loop
      vertex 2 -2.17341 30.435
      vertex 0 -2.32588 30.2223
      vertex 2 -2.32588 30.2223
    endloop
  endfacet
  facet normal 0 0.412508 -0.910954
    outer loop
      vertex 0 38.5307 24.3045
      vertex 2 38.7692 24.4125
      vertex 2 38.5307 24.3045
    endloop
  endfacet
  facet normal 0 0.412508 -0.910954
    outer loop
      vertex 2 38.7692 24.4125
      vertex 0 38.5307 24.3045
      vertex 0 38.7692 24.4125
    endloop
  endfacet
  facet normal 0 -0.773114 -0.634267
    outer loop
      vertex 0 -2.00736 25.3626
      vertex 2 -2.17341 25.565
      vertex 0 -2.17341 25.565
    endloop
  endfacet
  facet normal 0 -0.773114 -0.634267
    outer loop
      vertex 2 -2.17341 25.565
      vertex 0 -2.00736 25.3626
      vertex 2 -2.00736 25.3626
    endloop
  endfacet
  facet normal 0 -0.290345 0.956922
    outer loop
      vertex 0 -0.0352755 31.8637
      vertex 2 -0.285757 31.7877
      vertex 2 -0.0352755 31.8637
    endloop
  endfacet
  facet normal 0 -0.290345 0.956922
    outer loop
      vertex 2 -0.285757 31.7877
      vertex 0 -0.0352755 31.8637
      vertex 0 -0.285757 31.7877
    endloop
  endfacet
  facet normal 0 0.995206 -0.0978014
    outer loop
      vertex 2 40.9658 27.4779
      vertex 0 40.9914 27.7384
      vertex 2 40.9914 27.7384
    endloop
  endfacet
  facet normal 0 0.995206 -0.0978014
    outer loop
      vertex 0 40.9914 27.7384
      vertex 2 40.9658 27.4779
      vertex 0 40.9658 27.4779
    endloop
  endfacet
  facet normal 0 0 -1
    outer loop
      vertex 1 1 24
      vertex 0 1 24
      vertex 0 2 24
    endloop
  endfacet
  facet normal -0 0 -1
    outer loop
      vertex 1 37 24
      vertex 0 36 24
      vertex 0 37 24
    endloop
  endfacet
  facet normal 0 0 -1
    outer loop
      vertex 0.571429 2.57143 24
      vertex 2 36.8571 24
      vertex 2 1.14286 24
    endloop
  endfacet
  facet normal 0 0 -1
    outer loop
      vertex 2 36.8571 24
      vertex 0.571429 2.57143 24
      vertex 0.571429 35.4286 24
    endloop
  endfacet
  facet normal 0 -0.634284 -0.7731
    outer loop
      vertex 0 -1.63738 24.9926
      vertex 2 -1.43505 24.8266
      vertex 2 -1.63738 24.9926
    endloop
  endfacet
  facet normal -0 -0.634284 -0.7731
    outer loop
      vertex 2 -1.43505 24.8266
      vertex 0 -1.63738 24.9926
      vertex 0 -1.43505 24.8266
    endloop
  endfacet
  facet normal 0 0.4715 -0.881866
    outer loop
      vertex 0 38.7692 24.4125
      vertex 2 39 24.5359
      vertex 2 38.7692 24.4125
    endloop
  endfacet
  facet normal 0 0.4715 -0.881866
    outer loop
      vertex 2 39 24.5359
      vertex 0 38.7692 24.4125
      vertex 0 39 24.5359
    endloop
  endfacet
  facet normal 0.000834199 0.22627 -0.974064
    outer loop
      vertex 1.78036 37.7804 24.0769
      vertex 2 38.0353 24.1363
      vertex 2 38 24.1281
    endloop
  endfacet
  facet normal 0 0.226952 -0.973906
    outer loop
      vertex 0 38.0353 24.1363
      vertex 1.78036 37.7804 24.0769
      vertex 0 37.7804 24.0769
    endloop
  endfacet
  facet normal 0 0.226952 -0.973906
    outer loop
      vertex 1.78036 37.7804 24.0769
      vertex 0 38.0353 24.1363
      vertex 2 38.0353 24.1363
    endloop
  endfacet
  facet normal 0 -0.910911 -0.412603
    outer loop
      vertex 0 -2.58749 26.2308
      vertex 2 -2.69552 26.4693
      vertex 0 -2.69552 26.4693
    endloop
  endfacet
  facet normal 0 -0.910911 -0.412603
    outer loop
      vertex 2 -2.69552 26.4693
      vertex 0 -2.58749 26.2308
      vertex 2 -2.58749 26.2308
    endloop
  endfacet
  facet normal 0 0.995206 0.0978014
    outer loop
      vertex 2 40.9914 28.2616
      vertex 0 40.9658 28.5221
      vertex 2 40.9658 28.5221
    endloop
  endfacet
  facet normal 0 0.995206 0.0978014
    outer loop
      vertex 0 40.9658 28.5221
      vertex 2 40.9914 28.2616
      vertex 0 40.9914 28.2616
    endloop
  endfacet
  facet normal 0 0.881866 0.4715
    outer loop
      vertex 2 40.5875 29.7692
      vertex 0 40.4641 30
      vertex 2 40.4641 30
    endloop
  endfacet
  facet normal 0 0.881866 0.4715
    outer loop
      vertex 0 40.4641 30
      vertex 2 40.5875 29.7692
      vertex 0 40.5875 29.7692
    endloop
  endfacet
  facet normal 0 0.0328569 -0.99946
    outer loop
      vertex 0 37.2616 24.0086
      vertex 1 37 24
      vertex 0 37 24
    endloop
  endfacet
  facet normal 0 0.0328569 -0.99946
    outer loop
      vertex 1 37 24
      vertex 0 37.2616 24.0086
      vertex 1.26161 37.2616 24.0086
    endloop
  endfacet
  facet normal 0 -0.956949 -0.290255
    outer loop
      vertex 0 -2.78772 26.7142
      vertex 2 -2.8637 26.9647
      vertex 0 -2.8637 26.9647
    endloop
  endfacet
  facet normal 0 -0.956949 -0.290255
    outer loop
      vertex 2 -2.8637 26.9647
      vertex 0 -2.78772 26.7142
      vertex 2 -2.78772 26.7142
    endloop
  endfacet
  facet normal 0 -0.582556 0.81279
    outer loop
      vertex 0 -1.22228 31.3259
      vertex 2 -1.43505 31.1734
      vertex 2 -1.22228 31.3259
    endloop
  endfacet
  facet normal 0 -0.582556 0.81279
    outer loop
      vertex 2 -1.43505 31.1734
      vertex 0 -1.22228 31.3259
      vertex 0 -1.43505 31.1734
    endloop
  endfacet
  facet normal 0 -0.881882 0.471471
    outer loop
      vertex 0 -2.58749 29.7692
      vertex 2 -2.4641 30
      vertex 0 -2.4641 30
    endloop
  endfacet
  facet normal 0 -0.881882 0.471471
    outer loop
      vertex 2 -2.4641 30
      vertex 0 -2.58749 29.7692
      vertex 2 -2.58749 29.7692
    endloop
  endfacet
  facet normal 0 0.956928 -0.290325
    outer loop
      vertex 2 40.7877 26.7142
      vertex 0 40.8637 26.9647
      vertex 2 40.8637 26.9647
    endloop
  endfacet
  facet normal 0 0.956928 -0.290325
    outer loop
      vertex 0 40.8637 26.9647
      vertex 2 40.7877 26.7142
      vertex 0 40.7877 26.7142
    endloop
  endfacet
  facet normal 0 -0.528006 -0.849241
    outer loop
      vertex 0 -1.22228 24.6741
      vertex 2 -1 24.5359
      vertex 2 -1.22228 24.6741
    endloop
  endfacet
  facet normal -0 -0.528006 -0.849241
    outer loop
      vertex 2 -1 24.5359
      vertex 0 -1.22228 24.6741
      vertex 0 -1 24.5359
    endloop
  endfacet
  facet normal 0 -0.986647 -0.162875
    outer loop
      vertex 0 -2.92314 27.2196
      vertex 2 -2.96578 27.4779
      vertex 0 -2.96578 27.4779
    endloop
  endfacet
  facet normal 0 -0.986647 -0.162875
    outer loop
      vertex 2 -2.96578 27.4779
      vertex 0 -2.92314 27.2196
      vertex 2 -2.92314 27.2196
    endloop
  endfacet
  facet normal 0 0.352338 -0.935873
    outer loop
      vertex 0 38.2858 24.2123
      vertex 2 38.5307 24.3045
      vertex 2 38.2858 24.2123
    endloop
  endfacet
  facet normal 0 0.352338 -0.935873
    outer loop
      vertex 2 38.5307 24.3045
      vertex 0 38.2858 24.2123
      vertex 0 38.5307 24.3045
    endloop
  endfacet
  facet normal 0 -0.973872 -0.227097
    outer loop
      vertex 0 -2.8637 26.9647
      vertex 2 -2.92314 27.2196
      vertex 0 -2.92314 27.2196
    endloop
  endfacet
  facet normal 0 -0.973872 -0.227097
    outer loop
      vertex 2 -2.92314 27.2196
      vertex 0 -2.8637 26.9647
      vertex 2 -2.8637 26.9647
    endloop
  endfacet
  facet normal 0 0.935873 0.352338
    outer loop
      vertex 2 40.7877 29.2858
      vertex 0 40.6955 29.5307
      vertex 2 40.6955 29.5307
    endloop
  endfacet
  facet normal 0 0.935873 0.352338
    outer loop
      vertex 0 40.6955 29.5307
      vertex 2 40.7877 29.2858
      vertex 0 40.7877 29.2858
    endloop
  endfacet
  facet normal 0 0.98661 0.163098
    outer loop
      vertex 2 40.9658 28.5221
      vertex 0 40.9231 28.7804
      vertex 2 40.9231 28.7804
    endloop
  endfacet
  facet normal 0 0.98661 0.163098
    outer loop
      vertex 0 40.9231 28.7804
      vertex 2 40.9658 28.5221
      vertex 0 40.9658 28.5221
    endloop
  endfacet
  facet normal 0 0.582683 -0.8127
    outer loop
      vertex 0 39.2223 24.6741
      vertex 2 39.435 24.8266
      vertex 2 39.2223 24.6741
    endloop
  endfacet
  facet normal 0 0.582683 -0.8127
    outer loop
      vertex 2 39.435 24.8266
      vertex 0 39.2223 24.6741
      vertex 0 39.435 24.8266
    endloop
  endfacet
  facet normal 0 -0.956949 0.290255
    outer loop
      vertex 0 -2.8637 29.0353
      vertex 2 -2.78772 29.2858
      vertex 0 -2.78772 29.2858
    endloop
  endfacet
  facet normal 0 -0.956949 0.290255
    outer loop
      vertex 2 -2.78772 29.2858
      vertex 0 -2.8637 29.0353
      vertex 2 -2.8637 29.0353
    endloop
  endfacet
  facet normal 1 0 0
    outer loop
      vertex 2 -0.285757 31.7877
      vertex 2 0 31.8719
      vertex 2 -0.0352755 31.8637
    endloop
  endfacet
  facet normal 1 0 0
    outer loop
      vertex 2 0 31.8719
      vertex 2 -0.285757 31.7877
      vertex 2 0 24.1281
    endloop
  endfacet
  facet normal 1 -0 0
    outer loop
      vertex 2 -0.285757 24.2123
      vertex 2 0 24.1281
      vertex 2 -0.285757 31.7877
    endloop
  endfacet
  facet normal 1 0 0
    outer loop
      vertex 2 0 24.1281
      vertex 2 -0.285757 24.2123
      vertex 2 -0.0352755 24.1363
    endloop
  endfacet
  facet normal 1 -0 0
    outer loop
      vertex 2 -0.530733 31.6955
      vertex 2 -0.285757 24.2123
      vertex 2 -0.285757 31.7877
    endloop
  endfacet
  facet normal 1 0 0
    outer loop
      vertex 2 -0.530733 31.6955
      vertex 2 -0.530733 24.3045
      vertex 2 -0.285757 24.2123
    endloop
  endfacet
  facet normal 1 -0 0
    outer loop
      vertex 2 -0.769155 31.5875
      vertex 2 -0.530733 24.3045
      vertex 2 -0.530733 31.6955
    endloop
  endfacet
  facet normal 1 0 0
    outer loop
      vertex 2 -0.769155 31.5875
      vertex 2 -0.769155 24.4125
      vertex 2 -0.530733 24.3045
    endloop
  endfacet
  facet normal 1 -0 0
    outer loop
      vertex 2 -1 31.4641
      vertex 2 -0.769155 24.4125
      vertex 2 -0.769155 31.5875
    endloop
  endfacet
  facet normal 1 0 0
    outer loop
      vertex 2 -1 31.4641
      vertex 2 -1 24.5359
      vertex 2 -0.769155 24.4125
    endloop
  endfacet
  facet normal 1 -0 0
    outer loop
      vertex 2 -1.22228 31.3259
      vertex 2 -1 24.5359
      vertex 2 -1 31.4641
    endloop
  endfacet
  facet normal 1 0 0
    outer loop
      vertex 2 -1.22228 31.3259
      vertex 2 -1.22228 24.6741
      vertex 2 -1 24.5359
    endloop
  endfacet
  facet normal 1 -0 0
    outer loop
      vertex 2 -1.43505 31.1734
      vertex 2 -1.22228 24.6741
      vertex 2 -1.22228 31.3259
    endloop
  endfacet
  facet normal 1 0 0
    outer loop
      vertex 2 -1.43505 31.1734
      vertex 2 -1.43505 24.8266
      vertex 2 -1.22228 24.6741
    endloop
  endfacet
  facet normal 1 -0 0
    outer loop
      vertex 2 -1.63738 31.0074
      vertex 2 -1.43505 24.8266
      vertex 2 -1.43505 31.1734
    endloop
  endfacet
  facet normal 1 0 0
    outer loop
      vertex 2 -1.63738 31.0074
      vertex 2 -1.63738 24.9926
      vertex 2 -1.43505 24.8266
    endloop
  endfacet
  facet normal 1 -0 0
    outer loop
      vertex 2 -1.82843 30.8284
      vertex 2 -1.63738 24.9926
      vertex 2 -1.63738 31.0074
    endloop
  endfacet
  facet normal 1 0 0
    outer loop
      vertex 2 -1.82843 30.8284
      vertex 2 -1.82843 25.1716
      vertex 2 -1.63738 24.9926
    endloop
  endfacet
  facet normal 1 -0 0
    outer loop
      vertex 2 -2.00736 30.6374
      vertex 2 -1.82843 25.1716
      vertex 2 -1.82843 30.8284
    endloop
  endfacet
  facet normal 1 0 0
    outer loop
      vertex 2 -2.00736 30.6374
      vertex 2 -2.00736 25.3626
      vertex 2 -1.82843 25.1716
    endloop
  endfacet
  facet normal 1 -0 0
    outer loop
      vertex 2 -2.17341 30.435
      vertex 2 -2.00736 25.3626
      vertex 2 -2.00736 30.6374
    endloop
  endfacet
  facet normal 1 0 0
    outer loop
      vertex 2 -2.17341 30.435
      vertex 2 -2.17341 25.565
      vertex 2 -2.00736 25.3626
    endloop
  endfacet
  facet normal 1 -0 0
    outer loop
      vertex 2 -2.32588 30.2223
      vertex 2 -2.17341 25.565
      vertex 2 -2.17341 30.435
    endloop
  endfacet
  facet normal 1 0 0
    outer loop
      vertex 2 -2.32588 30.2223
      vertex 2 -2.32588 25.7777
      vertex 2 -2.17341 25.565
    endloop
  endfacet
  facet normal 1 -0 0
    outer loop
      vertex 2 -2.4641 30
      vertex 2 -2.32588 25.7777
      vertex 2 -2.32588 30.2223
    endloop
  endfacet
  facet normal 1 0 0
    outer loop
      vertex 2 -2.4641 30
      vertex 2 -2.4641 26
      vertex 2 -2.32588 25.7777
    endloop
  endfacet
  facet normal 1 -0 0
    outer loop
      vertex 2 -2.58749 29.7692
      vertex 2 -2.4641 26
      vertex 2 -2.4641 30
    endloop
  endfacet
  facet normal 1 0 0
    outer loop
      vertex 2 -2.58749 29.7692
      vertex 2 -2.58749 26.2308
      vertex 2 -2.4641 26
    endloop
  endfacet
  facet normal 1 -0 0
    outer loop
      vertex 2 -2.69552 29.5307
      vertex 2 -2.58749 26.2308
      vertex 2 -2.58749 29.7692
    endloop
  endfacet
  facet normal 1 0 0
    outer loop
      vertex 2 -2.69552 29.5307
      vertex 2 -2.69552 26.4693
      vertex 2 -2.58749 26.2308
    endloop
  endfacet
  facet normal 1 -0 0
    outer loop
      vertex 2 -2.78772 29.2858
      vertex 2 -2.69552 26.4693
      vertex 2 -2.69552 29.5307
    endloop
  endfacet
  facet normal 1 0 0
    outer loop
      vertex 2 -2.78772 29.2858
      vertex 2 -2.78772 26.7142
      vertex 2 -2.69552 26.4693
    endloop
  endfacet
  facet normal 1 -0 0
    outer loop
      vertex 2 -2.8637 29.0353
      vertex 2 -2.78772 26.7142
      vertex 2 -2.78772 29.2858
    endloop
  endfacet
  facet normal 1 0 0
    outer loop
      vertex 2 -2.8637 29.0353
      vertex 2 -2.8637 26.9647
      vertex 2 -2.78772 26.7142
    endloop
  endfacet
  facet normal 1 -0 0
    outer loop
      vertex 2 -2.92314 28.7804
      vertex 2 -2.8637 26.9647
      vertex 2 -2.8637 29.0353
    endloop
  endfacet
  facet normal 1 0 0
    outer loop
      vertex 2 -2.92314 28.7804
      vertex 2 -2.92314 27.2196
      vertex 2 -2.8637 26.9647
    endloop
  endfacet
  facet normal 1 -0 0
    outer loop
      vertex 2 -2.96578 28.5221
      vertex 2 -2.92314 27.2196
      vertex 2 -2.92314 28.7804
    endloop
  endfacet
  facet normal 1 0 0
    outer loop
      vertex 2 -2.96578 28.5221
      vertex 2 -2.96578 27.4779
      vertex 2 -2.92314 27.2196
    endloop
  endfacet
  facet normal 1 -0 0
    outer loop
      vertex 2 -2.99144 28.2616
      vertex 2 -2.96578 27.4779
      vertex 2 -2.96578 28.5221
    endloop
  endfacet
  facet normal 1 0 0
    outer loop
      vertex 2 -2.99144 28.2616
      vertex 2 -2.99144 27.7384
      vertex 2 -2.96578 27.4779
    endloop
  endfacet
  facet normal 1 0 -0
    outer loop
      vertex 2 -2.99144 27.7384
      vertex 2 -2.99144 28.2616
      vertex 2 -3 28
    endloop
  endfacet
  facet normal 1 0 0
    outer loop
      vertex 2 40.9914 28.2616
      vertex 2 40.9914 27.7384
      vertex 2 41 28
    endloop
  endfacet
  facet normal 1 0 0
    outer loop
      vertex 2 40.9658 28.5221
      vertex 2 40.9914 27.7384
      vertex 2 40.9914 28.2616
    endloop
  endfacet
  facet normal 1 0 0
    outer loop
      vertex 2 40.9658 28.5221
      vertex 2 40.9658 27.4779
      vertex 2 40.9914 27.7384
    endloop
  endfacet
  facet normal 1 0 0
    outer loop
      vertex 2 40.9231 28.7804
      vertex 2 40.9658 27.4779
      vertex 2 40.9658 28.5221
    endloop
  endfacet
  facet normal 1 0 0
    outer loop
      vertex 2 40.9231 28.7804
      vertex 2 40.9231 27.2196
      vertex 2 40.9658 27.4779
    endloop
  endfacet
  facet normal 1 0 0
    outer loop
      vertex 2 40.8637 29.0353
      vertex 2 40.9231 27.2196
      vertex 2 40.9231 28.7804
    endloop
  endfacet
  facet normal 1 0 0
    outer loop
      vertex 2 40.8637 29.0353
      vertex 2 40.8637 26.9647
      vertex 2 40.9231 27.2196
    endloop
  endfacet
  facet normal 1 0 0
    outer loop
      vertex 2 40.7877 29.2858
      vertex 2 40.8637 26.9647
      vertex 2 40.8637 29.0353
    endloop
  endfacet
  facet normal 1 0 0
    outer loop
      vertex 2 40.7877 29.2858
      vertex 2 40.7877 26.7142
      vertex 2 40.8637 26.9647
    endloop
  endfacet
  facet normal 1 0 0
    outer loop
      vertex 2 40.6955 29.5307
      vertex 2 40.7877 26.7142
      vertex 2 40.7877 29.2858
    endloop
  endfacet
  facet normal 1 0 0
    outer loop
      vertex 2 40.6955 29.5307
      vertex 2 40.6955 26.4693
      vertex 2 40.7877 26.7142
    endloop
  endfacet
  facet normal 1 0 0
    outer loop
      vertex 2 40.5875 29.7692
      vertex 2 40.6955 26.4693
      vertex 2 40.6955 29.5307
    endloop
  endfacet
  facet normal 1 0 0
    outer loop
      vertex 2 40.5875 29.7692
      vertex 2 40.5875 26.2308
      vertex 2 40.6955 26.4693
    endloop
  endfacet
  facet normal 1 0 0
    outer loop
      vertex 2 40.4641 30
      vertex 2 40.5875 26.2308
      vertex 2 40.5875 29.7692
    endloop
  endfacet
  facet normal 1 0 0
    outer loop
      vertex 2 40.4641 30
      vertex 2 40.4641 26
      vertex 2 40.5875 26.2308
    endloop
  endfacet
  facet normal 1 0 0
    outer loop
      vertex 2 40.3259 30.2223
      vertex 2 40.4641 26
      vertex 2 40.4641 30
    endloop
  endfacet
  facet normal 1 0 0
    outer loop
      vertex 2 40.3259 30.2223
      vertex 2 40.3259 25.7777
      vertex 2 40.4641 26
    endloop
  endfacet
  facet normal 1 0 0
    outer loop
      vertex 2 40.1734 30.435
      vertex 2 40.3259 25.7777
      vertex 2 40.3259 30.2223
    endloop
  endfacet
  facet normal 1 0 0
    outer loop
      vertex 2 40.1734 30.435
      vertex 2 40.1734 25.565
      vertex 2 40.3259 25.7777
    endloop
  endfacet
  facet normal 1 0 0
    outer loop
      vertex 2 40.0074 30.6374
      vertex 2 40.1734 25.565
      vertex 2 40.1734 30.435
    endloop
  endfacet
  facet normal 1 0 0
    outer loop
      vertex 2 40.0074 30.6374
      vertex 2 40.0074 25.3626
      vertex 2 40.1734 25.565
    endloop
  endfacet
  facet normal 1 0 0
    outer loop
      vertex 2 39.8284 30.8284
      vertex 2 40.0074 25.3626
      vertex 2 40.0074 30.6374
    endloop
  endfacet
  facet normal 1 0 0
    outer loop
      vertex 2 39.8284 30.8284
      vertex 2 39.8284 25.1716
      vertex 2 40.0074 25.3626
    endloop
  endfacet
  facet normal 1 0 0
    outer loop
      vertex 2 39.6374 31.0074
      vertex 2 39.8284 25.1716
      vertex 2 39.8284 30.8284
    endloop
  endfacet
  facet normal 1 0 0
    outer loop
      vertex 2 39.6374 31.0074
      vertex 2 39.6374 24.9926
      vertex 2 39.8284 25.1716
    endloop
  endfacet
  facet normal 1 0 0
    outer loop
      vertex 2 39.435 31.1734
      vertex 2 39.6374 24.9926
      vertex 2 39.6374 31.0074
    endloop
  endfacet
  facet normal 1 0 0
    outer loop
      vertex 2 39.435 31.1734
      vertex 2 39.435 24.8266
      vertex 2 39.6374 24.9926
    endloop
  endfacet
  facet normal 1 0 0
    outer loop
      vertex 2 39.2223 31.3259
      vertex 2 39.435 24.8266
      vertex 2 39.435 31.1734
    endloop
  endfacet
  facet normal 1 0 0
    outer loop
      vertex 2 39.2223 31.3259
      vertex 2 39.2223 24.6741
      vertex 2 39.435 24.8266
    endloop
  endfacet
  facet normal 1 0 0
    outer loop
      vertex 2 39 31.4641
      vertex 2 39.2223 24.6741
      vertex 2 39.2223 31.3259
    endloop
  endfacet
  facet normal 1 0 0
    outer loop
      vertex 2 39 31.4641
      vertex 2 39 24.5359
      vertex 2 39.2223 24.6741
    endloop
  endfacet
  facet normal 1 0 0
    outer loop
      vertex 2 38.7692 31.5875
      vertex 2 39 24.5359
      vertex 2 39 31.4641
    endloop
  endfacet
  facet normal 1 0 0
    outer loop
      vertex 2 38.7692 31.5875
      vertex 2 38.7692 24.4125
      vertex 2 39 24.5359
    endloop
  endfacet
  facet normal 1 0 0
    outer loop
      vertex 2 38.5307 31.6955
      vertex 2 38.7692 24.4125
      vertex 2 38.7692 31.5875
    endloop
  endfacet
  facet normal 1 0 0
    outer loop
      vertex 2 38.5307 31.6955
      vertex 2 38.5307 24.3045
      vertex 2 38.7692 24.4125
    endloop
  endfacet
  facet normal 1 0 0
    outer loop
      vertex 2 38.2858 31.7877
      vertex 2 38.5307 24.3045
      vertex 2 38.5307 31.6955
    endloop
  endfacet
  facet normal 1 0 0
    outer loop
      vertex 2 38.2858 31.7877
      vertex 2 38.2858 24.2123
      vertex 2 38.5307 24.3045
    endloop
  endfacet
  facet normal 1 0 0
    outer loop
      vertex 2 38 31.8719
      vertex 2 38.2858 31.7877
      vertex 2 38.0353 31.8637
    endloop
  endfacet
  facet normal 1 0 0
    outer loop
      vertex 2 38.2858 31.7877
      vertex 2 38 31.8719
      vertex 2 38.2858 24.2123
    endloop
  endfacet
  facet normal 1 0 0
    outer loop
      vertex 2 38 24.1281
      vertex 2 38.2858 24.2123
      vertex 2 38 31.8719
    endloop
  endfacet
  facet normal 1 0 0
    outer loop
      vertex 2 38.2858 24.2123
      vertex 2 38 24.1281
      vertex 2 38.0353 24.1363
    endloop
  endfacet
  facet normal 1 0 0
    outer loop
      vertex 2 37.2616 31.9914
      vertex 2 37.763 31.926
      vertex 2 37.5221 31.9658
    endloop
  endfacet
  facet normal 1 0 0
    outer loop
      vertex 2 37 32
      vertex 2 37.763 31.926
      vertex 2 37.2616 31.9914
    endloop
  endfacet
  facet normal 1 0 0
    outer loop
      vertex 2 37 32
      vertex 2 36.8571 24
      vertex 2 37.763 31.926
    endloop
  endfacet
  facet normal 1 0 0
    outer loop
      vertex 2 37 32
      vertex 2 1.14286 24
      vertex 2 36.8571 24
    endloop
  endfacet
  facet normal 1 -0 0
    outer loop
      vertex 2 1 32
      vertex 2 1.14286 24
      vertex 2 37 32
    endloop
  endfacet
  facet normal 1 -0 0
    outer loop
      vertex 2 0.738387 31.9914
      vertex 2 1.14286 24
      vertex 2 1 32
    endloop
  endfacet
  facet normal 1 -0 0
    outer loop
      vertex 2 0.477895 31.9658
      vertex 2 1.14286 24
      vertex 2 0.738387 31.9914
    endloop
  endfacet
  facet normal 1 0 0
    outer loop
      vertex 2 1.14286 24
      vertex 2 0.477895 31.9658
      vertex 2 0.237027 31.926
    endloop
  endfacet
  facet normal 0 -0.935873 0.352338
    outer loop
      vertex 0 -2.78772 29.2858
      vertex 2 -2.69552 29.5307
      vertex 0 -2.69552 29.5307
    endloop
  endfacet
  facet normal 0 -0.935873 0.352338
    outer loop
      vertex 2 -2.69552 29.5307
      vertex 0 -2.78772 29.2858
      vertex 2 -2.78772 29.2858
    endloop
  endfacet
  facet normal 0 0.973906 0.226952
    outer loop
      vertex 2 40.9231 28.7804
      vertex 0 40.8637 29.0353
      vertex 2 40.8637 29.0353
    endloop
  endfacet
  facet normal 0 0.973906 0.226952
    outer loop
      vertex 0 40.8637 29.0353
      vertex 2 40.9231 28.7804
      vertex 0 40.9231 28.7804
    endloop
  endfacet
  facet normal 0 -0.41262 0.910903
    outer loop
      vertex 0 -0.530733 31.6955
      vertex 2 -0.769155 31.5875
      vertex 2 -0.530733 31.6955
    endloop
  endfacet
  facet normal 0 -0.41262 0.910903
    outer loop
      vertex 2 -0.769155 31.5875
      vertex 0 -0.530733 31.6955
      vertex 0 -0.769155 31.5875
    endloop
  endfacet
  facet normal 0 -0.352242 0.935909
    outer loop
      vertex 0 -0.285757 31.7877
      vertex 2 -0.530733 31.6955
      vertex 2 -0.285757 31.7877
    endloop
  endfacet
  facet normal 0 -0.352242 0.935909
    outer loop
      vertex 2 -0.530733 31.6955
      vertex 0 -0.285757 31.7877
      vertex 0 -0.530733 31.6955
    endloop
  endfacet
  facet normal 0 -0.683719 -0.729746
    outer loop
      vertex 0 -1.82843 25.1716
      vertex 2 -1.63738 24.9926
      vertex 2 -1.82843 25.1716
    endloop
  endfacet
  facet normal -0 -0.683719 -0.729746
    outer loop
      vertex 2 -1.63738 24.9926
      vertex 0 -1.82843 25.1716
      vertex 0 -1.63738 24.9926
    endloop
  endfacet
  facet normal 0 -0.986647 0.162875
    outer loop
      vertex 0 -2.96578 28.5221
      vertex 2 -2.92314 28.7804
      vertex 0 -2.92314 28.7804
    endloop
  endfacet
  facet normal 0 -0.986647 0.162875
    outer loop
      vertex 2 -2.92314 28.7804
      vertex 0 -2.96578 28.5221
      vertex 2 -2.96578 28.5221
    endloop
  endfacet
  facet normal 0 0.729656 -0.683814
    outer loop
      vertex 2 39.8284 25.1716
      vertex 0 40.0074 25.3626
      vertex 2 40.0074 25.3626
    endloop
  endfacet
  facet normal 0 0.729656 -0.683814
    outer loop
      vertex 0 40.0074 25.3626
      vertex 2 39.8284 25.1716
      vertex 0 39.8284 25.1716
    endloop
  endfacet
  facet normal 0 -0.973872 0.227097
    outer loop
      vertex 0 -2.92314 28.7804
      vertex 2 -2.8637 29.0353
      vertex 0 -2.8637 29.0353
    endloop
  endfacet
  facet normal 0 -0.973872 0.227097
    outer loop
      vertex 2 -2.8637 29.0353
      vertex 0 -2.92314 28.7804
      vertex 2 -2.92314 28.7804
    endloop
  endfacet
  facet normal 0.000637879 -0.226419 -0.97403
    outer loop
      vertex 2 -0.0352755 24.1363
      vertex 1.78036 0.219638 24.0769
      vertex 2 0 24.1281
    endloop
  endfacet
  facet normal 0 -0.22694 -0.973909
    outer loop
      vertex 0 -0.0352755 24.1363
      vertex 1.78036 0.219638 24.0769
      vertex 2 -0.0352755 24.1363
    endloop
  endfacet
  facet normal -0 -0.22694 -0.973909
    outer loop
      vertex 1.78036 0.219638 24.0769
      vertex 0 -0.0352755 24.1363
      vertex 0 0.219638 24.0769
    endloop
  endfacet
  facet normal 0 -0.812754 -0.582607
    outer loop
      vertex 0 -2.17341 25.565
      vertex 2 -2.32588 25.7777
      vertex 0 -2.32588 25.7777
    endloop
  endfacet
  facet normal 0 -0.812754 -0.582607
    outer loop
      vertex 2 -2.32588 25.7777
      vertex 0 -2.17341 25.565
      vertex 2 -2.17341 25.565
    endloop
  endfacet
  facet normal 0 -0.910911 0.412603
    outer loop
      vertex 0 -2.69552 29.5307
      vertex 2 -2.58749 29.7692
      vertex 0 -2.58749 29.7692
    endloop
  endfacet
  facet normal 0 -0.910911 0.412603
    outer loop
      vertex 2 -2.58749 29.7692
      vertex 0 -2.69552 29.5307
      vertex 2 -2.69552 29.5307
    endloop
  endfacet
  facet normal 0 -0.72979 0.683672
    outer loop
      vertex 0 -2.00736 30.6374
      vertex 2 -1.82843 30.8284
      vertex 0 -1.82843 30.8284
    endloop
  endfacet
  facet normal 0 -0.72979 0.683672
    outer loop
      vertex 2 -1.82843 30.8284
      vertex 0 -2.00736 30.6374
      vertex 2 -2.00736 30.6374
    endloop
  endfacet
  facet normal 0 -0.582556 -0.81279
    outer loop
      vertex 0 -1.43505 24.8266
      vertex 2 -1.22228 24.6741
      vertex 2 -1.43505 24.8266
    endloop
  endfacet
  facet normal -0 -0.582556 -0.81279
    outer loop
      vertex 2 -1.22228 24.6741
      vertex 0 -1.43505 24.8266
      vertex 0 -1.22228 24.6741
    endloop
  endfacet
  facet normal 0 0.683814 -0.729656
    outer loop
      vertex 0 39.6374 24.9926
      vertex 2 39.8284 25.1716
      vertex 2 39.6374 24.9926
    endloop
  endfacet
  facet normal 0 0.683814 -0.729656
    outer loop
      vertex 2 39.8284 25.1716
      vertex 0 39.6374 24.9926
      vertex 0 39.8284 25.1716
    endloop
  endfacet
  facet normal 0 -0.471429 -0.881904
    outer loop
      vertex 0 -1 24.5359
      vertex 2 -0.769155 24.4125
      vertex 2 -1 24.5359
    endloop
  endfacet
  facet normal -0 -0.471429 -0.881904
    outer loop
      vertex 2 -0.769155 24.4125
      vertex 0 -1 24.5359
      vertex 0 -0.769155 24.4125
    endloop
  endfacet
  facet normal 0 -0.163125 0.986605
    outer loop
      vertex 0 0.219638 31.9231
      vertex 1.52211 0.477895 31.9658
      vertex 0 0.477895 31.9658
    endloop
  endfacet
  facet normal 0 -0.163125 0.986605
    outer loop
      vertex 1.52211 0.477895 31.9658
      vertex 0 0.219638 31.9231
      vertex 1.78036 0.219638 31.9231
    endloop
  endfacet
  facet normal 0 -0.163025 0.986622
    outer loop
      vertex 2 0.477895 31.9658
      vertex 1.75459 0.477895 31.9658
      vertex 2 0.237027 31.926
    endloop
  endfacet
  facet normal 0 0.290325 -0.956928
    outer loop
      vertex 0 38.0353 24.1363
      vertex 2 38.2858 24.2123
      vertex 2 38.0353 24.1363
    endloop
  endfacet
  facet normal 0 0.290325 -0.956928
    outer loop
      vertex 2 38.2858 24.2123
      vertex 0 38.0353 24.1363
      vertex 0 38.2858 24.2123
    endloop
  endfacet
  facet normal 0 -0.0978044 0.995206
    outer loop
      vertex 0 0.477895 31.9658
      vertex 1.26161 0.738387 31.9914
      vertex 0 0.738387 31.9914
    endloop
  endfacet
  facet normal 0 -0.0978044 0.995206
    outer loop
      vertex 1.26161 0.738387 31.9914
      vertex 0 0.477895 31.9658
      vertex 1.52211 0.477895 31.9658
    endloop
  endfacet
  facet normal 0 -0.0978044 0.995206
    outer loop
      vertex 2 0.738387 31.9914
      vertex 1.75459 0.477895 31.9658
      vertex 2 0.477895 31.9658
    endloop
  endfacet
  facet normal 0 -0.0978044 0.995206
    outer loop
      vertex 1.75459 0.477895 31.9658
      vertex 2 0.738387 31.9914
      vertex 1.49116 0.738387 31.9914
    endloop
  endfacet
  facet normal 0 -0.881882 -0.471471
    outer loop
      vertex 0 -2.4641 26
      vertex 2 -2.58749 26.2308
      vertex 0 -2.58749 26.2308
    endloop
  endfacet
  facet normal 0 -0.881882 -0.471471
    outer loop
      vertex 2 -2.58749 26.2308
      vertex 0 -2.4641 26
      vertex 2 -2.4641 26
    endloop
  endfacet
  facet normal -1 0 0
    outer loop
      vertex 45 0 0
      vertex 45 1.37143 10
      vertex 45 1.94286 0
    endloop
  endfacet
  facet normal -1 -0 0
    outer loop
      vertex 45 1.37143 10
      vertex 45 0 0
      vertex 45 0 10
    endloop
  endfacet
  facet normal 1 0 0
    outer loop
      vertex 29 0 0
      vertex 29 1.37143 10
      vertex 29 0 10
    endloop
  endfacet
  facet normal 1 0 0
    outer loop
      vertex 29 1.37143 10
      vertex 29 0 0
      vertex 29 1.94286 0
    endloop
  endfacet
  facet normal 0 0 -1
    outer loop
      vertex 29 0 10
      vertex 45 1.37143 10
      vertex 45 0 10
    endloop
  endfacet
  facet normal -0 0 -1
    outer loop
      vertex 45 1.37143 10
      vertex 29 0 10
      vertex 29 1.37143 10
    endloop
  endfacet
  facet normal -1 0 0
    outer loop
      vertex 45 38 0
      vertex 45 36.6286 10
      vertex 45 38 10
    endloop
  endfacet
  facet normal -1 0 -0
    outer loop
      vertex 45 36.6286 10
      vertex 45 38 0
      vertex 45 36.0571 0
    endloop
  endfacet
  facet normal 1 -0 0
    outer loop
      vertex 29 36.6286 10
      vertex 29 38 0
      vertex 29 38 10
    endloop
  endfacet
  facet normal 1 0 0
    outer loop
      vertex 29 38 0
      vertex 29 36.6286 10
      vertex 29 36.0571 0
    endloop
  endfacet
  facet normal 0 0 -1
    outer loop
      vertex 29 36.6286 10
      vertex 45 38 10
      vertex 45 36.6286 10
    endloop
  endfacet
  facet normal -0 0 -1
    outer loop
      vertex 45 38 10
      vertex 29 36.6286 10
      vertex 29 38 10
    endloop
  endfacet
  facet normal -1 0 0
    outer loop
      vertex 71 9 34.01
      vertex 71 29 36.01
      vertex 71 29 34.01
    endloop
  endfacet
  facet normal -1 -0 0
    outer loop
      vertex 71 29 36.01
      vertex 71 9 34.01
      vertex 71 9 36.01
    endloop
  endfacet
  facet normal 1 -0 0
    outer loop
      vertex 57 9 36.01
      vertex 57 29 34.01
      vertex 57 29 36.01
    endloop
  endfacet
  facet normal 1 0 0
    outer loop
      vertex 57 29 34.01
      vertex 57 9 36.01
      vertex 57 9 34.01
    endloop
  endfacet
  facet normal 0 -1 0
    outer loop
      vertex 57 29 34.01
      vertex 71 29 36.01
      vertex 57 29 36.01
    endloop
  endfacet
  facet normal 0 -1 -0
    outer loop
      vertex 71 29 36.01
      vertex 57 29 34.01
      vertex 71 29 34.01
    endloop
  endfacet
  facet normal 0 1 -0
    outer loop
      vertex 71 9 34.01
      vertex 57 9 36.01
      vertex 71 9 36.01
    endloop
  endfacet
  facet normal 0 1 0
    outer loop
      vertex 57 9 36.01
      vertex 71 9 34.01
      vertex 57 9 34.01
    endloop
  endfacet
  facet normal 0 -1 0
    outer loop
      vertex 74 25 0
      vertex 72.4 25 6
      vertex 72.0571 25 0
    endloop
  endfacet
  facet normal 0 -1 0
    outer loop
      vertex 72.4 25 6
      vertex 74 25 0
      vertex 74 25 6
    endloop
  endfacet
  facet normal 0 0 -1
    outer loop
      vertex 72.4 13 6
      vertex 74 25 6
      vertex 74 13 6
    endloop
  endfacet
  facet normal -0 0 -1
    outer loop
      vertex 74 25 6
      vertex 72.4 13 6
      vertex 72.4 25 6
    endloop
  endfacet
  facet normal 0 1 -0
    outer loop
      vertex 74 13 0
      vertex 72.4 13 6
      vertex 74 13 6
    endloop
  endfacet
  facet normal 0 1 0
    outer loop
      vertex 72.4 13 6
      vertex 74 13 0
      vertex 72.0571 13 0
    endloop
  endfacet
endsolid OpenSCAD_Model
